<?xml version="1.0" encoding="UTF-8" standalone="no"?>
<svg
   xmlns:dc="http://purl.org/dc/elements/1.1/"
   xmlns:cc="http://creativecommons.org/ns#"
   xmlns:rdf="http://www.w3.org/1999/02/22-rdf-syntax-ns#"
   xmlns:svg="http://www.w3.org/2000/svg"
   xmlns="http://www.w3.org/2000/svg"
   xmlns:sodipodi="http://sodipodi.sourceforge.net/DTD/sodipodi-0.dtd"
   xmlns:inkscape="http://www.inkscape.org/namespaces/inkscape"
   sodipodi:docname="School_Logo.svg"
   inkscape:version="1.0 (4035a4fb49, 2020-05-01)"
   id="svg8"
   version="1.1"
   viewBox="0 0 266.66957 405.35492"
   height="1532.05"
   width="1007.885">
  <defs
     id="defs2" />
  <sodipodi:namedview
     inkscape:window-maximized="0"
     inkscape:window-y="0"
     inkscape:window-x="-156"
     inkscape:window-height="729"
     inkscape:window-width="1274"
     units="px"
     showgrid="false"
     inkscape:document-rotation="0"
     inkscape:current-layer="layer1"
     inkscape:document-units="px"
     inkscape:cy="532.10217"
     inkscape:cx="-1154.6199"
     inkscape:zoom="0.13962617"
     inkscape:pageshadow="2"
     inkscape:pageopacity="0"
     borderopacity="1.0"
     bordercolor="#666666"
     pagecolor="#545454"
     id="base" />
  <metadata
     id="metadata5">
    <rdf:RDF>
      <cc:Work
         rdf:about="">
        <dc:format>image/svg+xml</dc:format>
        <dc:type
           rdf:resource="http://purl.org/dc/dcmitype/StillImage" />
        <dc:title></dc:title>
      </cc:Work>
    </rdf:RDF>
  </metadata>
  <g
     id="layer1"
     inkscape:groupmode="layer"
     inkscape:label="Layer 1">
    <g
       id="g1083">
      <g
         id="g176"
         transform="matrix(3.2229258,0,0,3.2229258,-123.12203,-408.53182)">
        <path
           d="m 80.528443,126.75804 c -23.508999,0 -41.401998,7.0316 -41.401998,7.0316 l -0.432,43.366 c 0,16.3761 13.820999,32.1913 40.922998,42.7001 28.038997,-8.1214 40.960997,-29.7826 41.010997,-42.7001 l 0.152,-43.3779 c 0,0 -16.743,-7.0197 -40.251997,-7.0197 z m -0.09,3.3063 c 21.236997,0 36.457997,6.3754 36.457997,6.3754 l 1.216,0.5096 v 1.3245 l -0.133,38.4471 c -0.05,12.7648 -12.185,32.3273 -37.795997,39.7417 l -0.646002,0.186 -0.623998,-0.2423 c -24.445999,-9.4737 -37.553998,-24.0631 -37.553998,-39.6936 v -0.011 l 0.398,-39.7811 1.243,-0.4885 c 0,0 16.196999,-6.369 37.437998,-6.369 z m 0,3.9687 c -18.131,0 -31.736999,4.576 -34.739998,5.6624 l -0.372,37.0173 v 0 c 0,13.2641 11.220999,26.5594 34.368997,35.7053 23.650998,-7.1308 34.280998,-25.6749 34.315998,-35.7132 l 0.128,-37.0565 c -2.915,-1.116 -15.671998,-5.6174 -33.700997,-5.6174 z"
           style="fill:#32503c;fill-opacity:1;stroke:none;stroke-width:0.264583;stroke-linecap:butt;stroke-linejoin:miter;stroke-miterlimit:4;stroke-dasharray:none;stroke-opacity:1"
           id="path2275" />
        <path
           id="path2277"
           style="opacity:0.5;fill:none;stroke:#800080;stroke-width:0.264583;stroke-linecap:round;stroke-miterlimit:4;stroke-dasharray:none;paint-order:markers fill stroke;stop-color:#000000"
           d="m 93.760441,176.00684 a 4.0017377,4.0017377 0 0 1 -0.02,0.4215" />
        <g
           id="g2288"
           transform="translate(-14094.077,4744.6754)">
          <path
             transform="scale(0.26458334)"
             sodipodi:nodetypes="sccsccs"
             d="m 53608.198,-17282.535 c 8.354,0 15.126,6.771 15.126,15.125 0.53,9.733 -2.998,18.866 -11.544,26.836 -11.575,9.458 -26.528,14.834 -41.963,14.834 -15.491,0 -30.495,-5.414 -42.442,-15.31 23.58,4.871 45.767,-2.246 68.478,-34.941 2.053,-3.724 7.001,-6.544 12.345,-6.544 z"
             style="opacity:1;fill:#828382;fill-opacity:1;stroke:none;stroke-width:0.999999;stroke-linecap:round;stroke-miterlimit:4;stroke-dasharray:none;paint-order:markers fill stroke;stop-color:#000000"
             id="path2279" />
          <path
             transform="scale(0.26458334)"
             sodipodi:nodetypes="ccsscc"
             d="m 53597.305,-17298.749 c 27.954,-2.213 34.941,21.59 27.246,44.216 7.612,-11.073 11.687,-24.193 11.687,-37.63 v 0 c 0,-25.462 -14.555,-48.683 -37.452,-59.775 8.54,9.4 19.686,28.012 -1.481,53.189 z"
             style="fill:#828382;fill-opacity:1;stroke:none;stroke-width:0.999999px;stroke-linecap:butt;stroke-linejoin:miter;stroke-opacity:1"
             id="path2281" />
          <path
             transform="scale(0.26458334)"
             sodipodi:nodetypes="sccccsscs"
             d="m 53563.086,-17294.755 c 8.353,0 15.125,6.772 15.125,15.125 1.081,17.351 -18.95,47.372 -50.811,38.584 -2.811,-2.333 -5.426,-4.894 -7.811,-7.677 -9.659,-27.813 10.537,-46.011 21.251,-50.91 -2.211,1.257 -3.187,4.294 -3.187,7.02 0,3.999 3.243,7.242 7.242,7.242 2.399,0 4.641,-1.188 5.959,-3.141 2.717,-3.77 7.186,-6.242 12.232,-6.243 z"
             style="opacity:1;fill:#ffd42a;fill-opacity:1;stroke:none;stroke-width:0.999999;stroke-linecap:round;stroke-miterlimit:4;stroke-dasharray:none;paint-order:markers fill stroke;stop-color:#000000"
             id="path2284" />
          <path
             d="m 53569.816,-17358.586 c -36.685,0 -66.423,29.737 -66.423,66.422 0,15.962 5.748,31.39 16.195,43.451 -13.202,-41.75 31.048,-58.767 51.902,-61.045 20.854,-2.278 31.141,-13.242 31.141,-25.263 0,-10.877 -7.978,-19.889 -18.668,-21.801 -4.813,-1.268 -9.467,-1.764 -14.147,-1.764 z m -2.888,10.307 a 14.081913,14.081913 0 0 1 0.03,0 14.081913,14.081913 0 0 1 14.084,14.082 14.081913,14.081913 0 0 1 -14.084,14.082 14.081913,14.081913 0 0 1 -14.082,-14.082 14.081913,14.081913 0 0 1 14.051,-14.082 z"
             style="opacity:1;fill:#2da003;fill-opacity:1;stroke:none;stroke-width:0.999999;stroke-linecap:round;stroke-miterlimit:4;stroke-dasharray:none;paint-order:markers fill stroke;stop-color:#000000"
             id="path2286"
             transform="scale(0.26458334)" />
        </g>
        <g
           aria-label="EST."
           id="text2292"
           style="font-style:normal;font-variant:normal;font-weight:600;font-stretch:normal;font-size:4.96726px;line-height:1.25;font-family:Trueno;-inkscape-font-specification:'Trueno, Semi-Bold';font-variant-ligatures:normal;font-variant-caps:normal;font-variant-numeric:normal;font-variant-east-asian:normal;letter-spacing:0px;word-spacing:0px;fill:#ffffff;stroke-width:0.124182">
          <path
             d="m 52.04866,173.68834 v -0.65071 h -2.64755 v 3.47708 h 2.702189 V 175.864 h -1.917362 v -0.76993 h 1.678934 v -0.65071 h -1.678934 v -0.75502 z"
             style="font-style:normal;font-variant:normal;font-weight:600;font-stretch:normal;font-size:4.96726px;font-family:Trueno;-inkscape-font-specification:'Trueno, Semi-Bold';font-variant-ligatures:normal;font-variant-caps:normal;font-variant-numeric:normal;font-variant-east-asian:normal;fill:#ffffff;stroke-width:0.124182"
             id="path312" />
          <path
             d="m 53.990703,173.00286 c -0.804696,0 -1.346128,0.39738 -1.346128,1.02822 0,1.23188 1.852788,0.8494 1.852788,1.50508 0,0.21359 -0.193723,0.33281 -0.516595,0.33281 -0.367577,0 -0.874237,-0.20366 -1.23188,-0.52157 l -0.312937,0.64078 c 0.392413,0.33281 0.963648,0.55137 1.534883,0.55137 0.769925,0 1.361029,-0.36758 1.361029,-1.0481 0.005,-1.25175 -1.847821,-0.8941 -1.847821,-1.53488 0,-0.18876 0.178822,-0.28313 0.442086,-0.28313 0.278167,0 0.715286,0.13908 1.082863,0.35764 l 0.303003,-0.65071 c -0.347708,-0.2285 -0.8345,-0.37751 -1.321291,-0.37751 z"
             style="font-style:normal;font-variant:normal;font-weight:600;font-stretch:normal;font-size:4.96726px;font-family:Trueno;-inkscape-font-specification:'Trueno, Semi-Bold';font-variant-ligatures:normal;font-variant-caps:normal;font-variant-numeric:normal;font-variant-east-asian:normal;fill:#ffffff;stroke-width:0.124182"
             id="path314" />
          <path
             d="m 58.444938,173.70324 v -0.66561 h -2.905847 v 0.66561 h 1.058026 v 2.81147 h 0.784827 v -2.81147 z"
             style="font-style:normal;font-variant:normal;font-weight:600;font-stretch:normal;font-size:4.96726px;font-family:Trueno;-inkscape-font-specification:'Trueno, Semi-Bold';font-variant-ligatures:normal;font-variant-caps:normal;font-variant-numeric:normal;font-variant-east-asian:normal;fill:#ffffff;stroke-width:0.124182"
             id="path316" />
          <path
             d="m 58.796215,175.76962 c -0.218559,0 -0.382479,0.15895 -0.382479,0.39241 0,0.2285 0.16392,0.39738 0.382479,0.39738 0.223527,0 0.382479,-0.16888 0.382479,-0.39738 0,-0.23346 -0.158952,-0.39241 -0.382479,-0.39241 z"
             style="font-style:normal;font-variant:normal;font-weight:600;font-stretch:normal;font-size:4.96726px;font-family:Trueno;-inkscape-font-specification:'Trueno, Semi-Bold';font-variant-ligatures:normal;font-variant-caps:normal;font-variant-numeric:normal;font-variant-east-asian:normal;fill:#ffffff;stroke-width:0.124182"
             id="path318" />
        </g>
        <g
           aria-label="1994"
           id="text2296"
           style="font-style:normal;font-variant:normal;font-weight:600;font-stretch:normal;font-size:4.6341px;line-height:1.25;font-family:Trueno;-inkscape-font-specification:'Trueno, Semi-Bold';font-variant-ligatures:normal;font-variant-caps:normal;font-variant-numeric:normal;font-variant-east-asian:normal;letter-spacing:0px;word-spacing:0px;fill:#ffffff;stroke-width:0.115853">
          <path
             d="m 102.18352,176.39801 v -3.24387 h -1.34389 v 0.61634 h 0.61171 v 2.62753 z"
             style="font-style:normal;font-variant:normal;font-weight:600;font-stretch:normal;font-size:4.6341px;font-family:Trueno;-inkscape-font-specification:'Trueno, Semi-Bold';font-variant-ligatures:normal;font-variant-caps:normal;font-variant-numeric:normal;font-variant-east-asian:normal;fill:#ffffff;stroke-width:0.115853"
             id="path321" />
          <path
             d="m 103.92732,176.43045 c 0.89438,0 1.46901,-0.67195 1.46901,-1.70535 0,-0.99633 -0.52365,-1.6034 -1.37633,-1.6034 -0.71828,0 -1.18633,0.42634 -1.18633,1.11219 0,0.63023 0.39854,1.0473 1.04268,1.0473 0.37536,0 0.6534,-0.14365 0.81096,-0.37999 0.0139,0.57462 -0.25024,0.94072 -0.80633,0.94072 -0.25024,0 -0.50048,-0.0741 -0.69511,-0.20854 l -0.27805,0.53756 c 0.26878,0.15756 0.67194,0.25951 1.0195,0.25951 z m 0.10659,-1.70998 c -0.32903,0 -0.51902,-0.18073 -0.51902,-0.48195 0,-0.32439 0.20853,-0.50512 0.53755,-0.50512 0.37536,0 0.55146,0.24098 0.54683,0.49122 0.005,0.27804 -0.2039,0.49585 -0.56536,0.49585 z"
             style="font-style:normal;font-variant:normal;font-weight:600;font-stretch:normal;font-size:4.6341px;font-family:Trueno;-inkscape-font-specification:'Trueno, Semi-Bold';font-variant-ligatures:normal;font-variant-caps:normal;font-variant-numeric:normal;font-variant-east-asian:normal;fill:#ffffff;stroke-width:0.115853"
             id="path323" />
          <path
             d="m 106.83268,176.43045 c 0.89439,0 1.46901,-0.67195 1.46901,-1.70535 0,-0.99633 -0.52365,-1.6034 -1.37632,-1.6034 -0.71829,0 -1.18633,0.42634 -1.18633,1.11219 0,0.63023 0.39853,1.0473 1.04267,1.0473 0.37536,0 0.65341,-0.14365 0.81097,-0.37999 0.0139,0.57462 -0.25024,0.94072 -0.80634,0.94072 -0.25024,0 -0.50048,-0.0741 -0.69511,-0.20854 l -0.27805,0.53756 c 0.26878,0.15756 0.67195,0.25951 1.0195,0.25951 z m 0.10659,-1.70998 c -0.32902,0 -0.51902,-0.18073 -0.51902,-0.48195 0,-0.32439 0.20853,-0.50512 0.53756,-0.50512 0.37536,0 0.55145,0.24098 0.54682,0.49122 0.005,0.27804 -0.2039,0.49585 -0.56536,0.49585 z"
             style="font-style:normal;font-variant:normal;font-weight:600;font-stretch:normal;font-size:4.6341px;font-family:Trueno;-inkscape-font-specification:'Trueno, Semi-Bold';font-variant-ligatures:normal;font-variant-caps:normal;font-variant-numeric:normal;font-variant-east-asian:normal;fill:#ffffff;stroke-width:0.115853"
             id="path325" />
          <path
             d="m 109.37659,175.07266 0.9917,-1.91852 h -0.70439 l -1.05194,1.99266 v 0.51902 h 1.54316 v 0.73219 h 0.68121 v -0.73219 h 0.44951 v -0.59316 h -0.44951 v -0.71365 h -0.68121 v 0.71365 z"
             style="font-style:normal;font-variant:normal;font-weight:600;font-stretch:normal;font-size:4.6341px;font-family:Trueno;-inkscape-font-specification:'Trueno, Semi-Bold';font-variant-ligatures:normal;font-variant-caps:normal;font-variant-numeric:normal;font-variant-east-asian:normal;fill:#ffffff;stroke-width:0.115853"
             id="path327" />
        </g>
        <g
           style="font-style:normal;font-variant:normal;font-weight:600;font-stretch:normal;font-size:7.9414px;line-height:1.25;font-family:Trueno;-inkscape-font-specification:'Trueno, Semi-Bold';font-variant-ligatures:normal;font-variant-caps:normal;font-variant-numeric:normal;font-variant-east-asian:normal;letter-spacing:1.41754px;word-spacing:0px;fill:#ffffff;stroke-width:0.198537"
           id="g2323"
           aria-label="ST JER  ME"
           transform="translate(-14094.077,4744.6754)">
          <path
             id="path2299"
             style="font-style:normal;font-variant:normal;font-weight:600;font-stretch:normal;font-size:7.9414px;font-family:Trueno;-inkscape-font-specification:'Trueno, Semi-Bold';font-variant-ligatures:normal;font-variant-caps:normal;font-variant-numeric:normal;font-variant-east-asian:normal;fill:#ffffff;stroke-width:0.198537"
             d="m 14148.71,-4586.0048 c -0.504,1.1836 -0.259,2.229 0.669,2.6242 1.812,0.7718 2.41,-2.1931 3.374,-1.7823 0.314,0.1339 0.368,0.4935 0.166,0.9684 -0.23,0.5407 -0.847,1.1583 -1.539,1.4852 l 0.747,0.8617 c 0.735,-0.3687 1.414,-1.072 1.772,-1.9122 0.483,-1.1324 0.312,-2.2322 -0.689,-2.6585 -1.838,-0.7916 -2.472,2.1577 -3.415,1.7563 -0.278,-0.1183 -0.304,-0.4404 -0.139,-0.8277 0.174,-0.4091 0.652,-0.9649 1.204,-1.3687 l -0.767,-0.8533 c -0.554,0.3683 -1.078,0.9909 -1.383,1.7069 z" />
          <path
             id="path2301"
             style="font-style:normal;font-variant:normal;font-weight:600;font-stretch:normal;font-size:7.9414px;font-family:Trueno;-inkscape-font-specification:'Trueno, Semi-Bold';font-variant-ligatures:normal;font-variant-caps:normal;font-variant-numeric:normal;font-variant-east-asian:normal;fill:#ffffff;stroke-width:0.198537"
             d="m 14155.174,-4593.744 -0.816,-0.6835 -2.984,3.5606 0.816,0.6835 1.086,-1.2964 3.445,2.8871 0.806,-0.9617 -3.445,-2.8871 z" />
          <path
             id="path2308"
             style="font-style:normal;font-variant:normal;font-weight:600;font-stretch:normal;font-size:7.9414px;font-family:Trueno;-inkscape-font-specification:'Trueno, Semi-Bold';font-variant-ligatures:normal;font-variant-caps:normal;font-variant-numeric:normal;font-variant-east-asian:normal;fill:#ffffff;stroke-width:0.198537"
             d="m 14162.227,-4599.8282 1.622,3.3795 c 0.206,0.4296 0.09,0.7687 -0.286,0.9473 -0.308,0.1477 -0.798,0.1539 -1.327,-0.05 l -0.138,1.0527 c 0.659,0.2914 1.341,0.3167 2.014,-0.01 1.038,-0.4981 1.394,-1.4087 0.889,-2.4612 l -1.635,-3.4082 z" />
          <path
             id="path2315"
             style="font-style:normal;font-variant:normal;font-weight:600;font-stretch:normal;font-size:7.9414px;font-family:Trueno;-inkscape-font-specification:'Trueno, Semi-Bold';font-variant-ligatures:normal;font-variant-caps:normal;font-variant-numeric:normal;font-variant-east-asian:normal;fill:#ffffff;stroke-width:0.198537"
             d="m 14171.625,-4601.3378 -0.169,-1.0265 -4.176,0.686 0.901,5.4854 4.263,-0.7001 -0.169,-1.0266 -3.025,0.4968 -0.199,-1.2146 2.648,-0.435 -0.168,-1.0266 -2.649,0.435 -0.196,-1.1911 z" />
          <path
             id="path2317"
             style="font-style:normal;font-variant:normal;font-weight:600;font-stretch:normal;font-size:7.9414px;font-family:Trueno;-inkscape-font-specification:'Trueno, Semi-Bold';font-variant-ligatures:normal;font-variant-caps:normal;font-variant-numeric:normal;font-variant-east-asian:normal;fill:#ffffff;stroke-width:0.198537"
             d="m 14178.246,-4596.346 1.403,0.2273 -0.875,-2.0001 c 0.718,-0.2056 1.177,-0.7587 1.314,-1.6053 0.197,-1.2151 -0.506,-2.037 -1.941,-2.2694 l -2.383,-0.3859 -0.889,5.4874 1.239,0.2006 0.254,-1.5678 1.144,0.1854 0.118,0.019 z m -1.711,-2.948 0.301,-1.8579 1.145,0.1854 c 0.682,0.1105 1.024,0.4797 0.925,1.0911 -0.101,0.6272 -0.544,0.8773 -1.226,0.7668 z" />
          <path
             id="path2319"
             style="font-style:normal;font-variant:normal;font-weight:600;font-stretch:normal;font-size:7.9414px;font-family:Trueno;-inkscape-font-specification:'Trueno, Semi-Bold';font-variant-ligatures:normal;font-variant-caps:normal;font-variant-numeric:normal;font-variant-east-asian:normal;fill:#ffffff;stroke-width:0.198537"
             d="m 14191.703,-4587.4712 4.124,-3.7286 -0.938,-1.0366 -3.602,1.084 1.434,-3.4814 -0.943,-1.0425 -4.123,3.7285 0.762,0.8423 2.78,-2.5141 -1.371,3.2315 0.548,0.6067 3.353,-1.0403 -2.78,2.514 z" />
          <path
             id="path2321"
             style="font-style:normal;font-variant:normal;font-weight:600;font-stretch:normal;font-size:7.9414px;font-family:Trueno;-inkscape-font-specification:'Trueno, Semi-Bold';font-variant-ligatures:normal;font-variant-caps:normal;font-variant-numeric:normal;font-variant-east-asian:normal;fill:#ffffff;stroke-width:0.198537"
             d="m 14198.74,-4582.8486 0.966,-0.3857 -1.569,-3.9311 -5.163,2.0609 1.601,4.0123 0.967,-0.3857 -1.137,-2.8469 1.143,-0.4564 0.995,2.4929 0.967,-0.3857 -0.995,-2.4929 1.121,-0.4475 z" />
        </g>
        <path
           sodipodi:nodetypes="ccccccccccc"
           id="path2325"
           d="m 86.407443,152.50204 2.949998,-5.0448 -2.212999,-2.1831 2.921,-0.03 1.209001,-2.9798 1.416999,3.0684 2.742999,-0.089 -2.035,2.3011 0.648999,2.8027 -2.743999,-1.4161 z"
           style="fill:#f7c605;fill-opacity:1;stroke:none;stroke-width:0.264583px;stroke-linecap:butt;stroke-linejoin:miter;stroke-opacity:1" />
        <g
           style="font-style:normal;font-variant:normal;font-weight:600;font-stretch:normal;font-size:8.30416px;line-height:1.25;font-family:Trueno;-inkscape-font-specification:'Trueno, Semi-Bold';font-variant-ligatures:normal;font-variant-caps:normal;font-variant-numeric:normal;font-variant-east-asian:normal;letter-spacing:1.48229px;word-spacing:0px;fill:#ffffff;stroke-width:0.207606"
           id="g2340"
           aria-label="SCHOOL"
           transform="translate(-14094.077,4744.6754)">
          <path
             id="path2327"
             style="font-style:normal;font-variant:normal;font-weight:600;font-stretch:normal;font-size:8.30416px;font-family:Trueno;-inkscape-font-specification:'Trueno, Semi-Bold';font-variant-ligatures:normal;font-variant-caps:normal;font-variant-numeric:normal;font-variant-east-asian:normal;fill:#ffffff;stroke-width:0.207606"
             d="m 14159.48,-4556.7974 c -1.06,-0.8282 -2.182,-0.8619 -2.832,-0.031 -1.267,1.623 1.567,3.0259 0.892,3.8897 -0.22,0.2814 -0.597,0.2391 -1.023,-0.093 -0.484,-0.3783 -0.942,-1.168 -1.086,-1.9549 l -1.072,0.5221 c 0.175,0.8423 0.702,1.7182 1.455,2.306 1.014,0.7924 2.171,0.9165 2.872,0.02 1.295,-1.644 -1.515,-3.0796 -0.855,-3.9238 0.194,-0.2487 0.527,-0.189 0.874,0.082 0.366,0.2863 0.799,0.9194 1.058,1.5856 l 1.069,-0.5455 c -0.223,-0.6588 -0.711,-1.3561 -1.352,-1.8571 z" />
          <path
             id="path2330"
             style="font-style:normal;font-variant:normal;font-weight:600;font-stretch:normal;font-size:8.30416px;font-family:Trueno;-inkscape-font-specification:'Trueno, Semi-Bold';font-variant-ligatures:normal;font-variant-caps:normal;font-variant-numeric:normal;font-variant-east-asian:normal;fill:#ffffff;stroke-width:0.207606"
             d="m 14164.554,-4553.7957 c -1.606,-0.7208 -3.342,-0.1166 -4.029,1.4138 -0.69,1.538 -0.02,3.2495 1.563,3.9601 0.773,0.3468 1.75,0.3393 2.569,0.015 l -0.361,-1.0814 c -0.549,0.2088 -1.18,0.2166 -1.658,0 -0.909,-0.408 -1.294,-1.4364 -0.879,-2.3607 0.415,-0.9243 1.436,-1.3126 2.345,-0.9046 0.492,0.221 0.893,0.7283 1.069,1.3082 l 1.078,-0.5357 c -0.281,-0.7726 -0.931,-1.4739 -1.697,-1.8173 z" />
          <path
             id="path2332"
             style="font-style:normal;font-variant:normal;font-weight:600;font-stretch:normal;font-size:8.30416px;font-family:Trueno;-inkscape-font-specification:'Trueno, Semi-Bold';font-variant-ligatures:normal;font-variant-caps:normal;font-variant-numeric:normal;font-variant-east-asian:normal;fill:#ffffff;stroke-width:0.207606"
             d="m 14171.637,-4546.0432 0.921,-5.7395 -1.296,-0.2078 -0.384,2.3942 -2.599,-0.417 0.384,-2.3942 -1.296,-0.2078 -0.92,5.7395 1.295,0.2078 0.363,-2.263 2.599,0.417 -0.363,2.263 z" />
          <path
             id="path2334"
             style="font-style:normal;font-variant:normal;font-weight:600;font-stretch:normal;font-size:8.30416px;font-family:Trueno;-inkscape-font-specification:'Trueno, Semi-Bold';font-variant-ligatures:normal;font-variant-caps:normal;font-variant-numeric:normal;font-variant-east-asian:normal;fill:#ffffff;stroke-width:0.207606"
             d="m 14176.433,-4552.1076 c -1.765,0.2063 -2.956,1.6079 -2.76,3.2905 0.196,1.6743 1.681,2.7884 3.446,2.5821 1.765,-0.2062 2.952,-1.6408 2.757,-3.3069 -0.196,-1.6743 -1.678,-2.7719 -3.443,-2.5657 z m 0.149,1.1363 c 0.965,-0.1127 1.839,0.571 1.958,1.5855 0.118,1.0146 -0.573,1.8979 -1.538,2.0107 -0.965,0.1127 -1.874,-0.5837 -1.992,-1.5982 -0.119,-1.0145 0.599,-1.8842 1.572,-1.998 z" />
          <path
             id="path2336"
             style="font-style:normal;font-variant:normal;font-weight:600;font-stretch:normal;font-size:8.30416px;font-family:Trueno;-inkscape-font-specification:'Trueno, Semi-Bold';font-variant-ligatures:normal;font-variant-caps:normal;font-variant-numeric:normal;font-variant-east-asian:normal;fill:#ffffff;stroke-width:0.207606"
             d="m 14182.604,-4553.7162 c -1.64,0.6827 -2.401,2.3572 -1.75,3.9212 0.648,1.5564 2.381,2.2203 4.022,1.5377 1.641,-0.6827 2.388,-2.3879 1.744,-3.9366 -0.648,-1.5564 -2.375,-2.205 -4.016,-1.5223 z m 0.456,1.0516 c 0.897,-0.3732 1.925,0.044 2.318,0.9875 0.392,0.943 -0.03,1.9821 -0.927,2.3553 -0.897,0.3733 -1.962,-0.047 -2.355,-0.99 -0.392,-0.943 0.06,-1.9763 0.964,-2.3528 z" />
          <path
             id="path2338"
             style="font-style:normal;font-variant:normal;font-weight:600;font-stretch:normal;font-size:8.30416px;font-family:Trueno;-inkscape-font-specification:'Trueno, Semi-Bold';font-variant-ligatures:normal;font-variant-caps:normal;font-variant-numeric:normal;font-variant-east-asian:normal;fill:#ffffff;stroke-width:0.207606"
             d="m 14190.073,-4552.532 -2.783,-3.7459 -1.054,0.7826 3.468,4.6657 3.052,-2.2686 -0.683,-0.9198 z" />
        </g>
        <path
           id="path2342"
           style="fill:#32503c;fill-opacity:1;stroke:none;stroke-width:0.264583;stroke-linecap:butt;stroke-linejoin:miter;stroke-miterlimit:4;stroke-dasharray:none;stroke-opacity:1"
           d="m 80.528443,126.75804 c -23.508999,0 -41.401998,7.0316 -41.401998,7.0316 l -0.432,43.366 c 0,16.3761 13.820999,32.1913 40.922998,42.7001 28.038997,-8.1214 40.960997,-29.7826 41.010997,-42.7001 l 0.152,-43.3779 c 0,0 -16.743,-7.0197 -40.251997,-7.0197 z m -0.09,3.3063 c 21.236997,0 36.457997,6.3754 36.457997,6.3754 l 1.216,0.5096 v 1.3245 l -0.133,38.4471 c -0.05,12.7648 -12.185,32.3273 -37.795997,39.7417 l -0.646002,0.186 -0.623998,-0.2423 c -24.445999,-9.4737 -37.553998,-24.0631 -37.553998,-39.6936 v -0.011 l 0.398,-39.7811 1.243,-0.4885 c 0,0 16.196999,-6.369 37.437998,-6.369 z m 0,3.9687 c -18.131,0 -31.736999,4.576 -34.739998,5.6624 l -0.372,37.0173 v 0 c 0,13.2641 11.220999,26.5594 34.368997,35.7053 23.650998,-7.1308 34.280998,-25.6749 34.315998,-35.7132 l 0.128,-37.0565 c -2.915,-1.116 -15.671998,-5.6174 -33.700997,-5.6174 z" />
        <path
           d="m 93.760441,176.00684 a 4.0017377,4.0017377 0 0 1 -0.02,0.4215"
           style="opacity:0.5;fill:none;stroke:#800080;stroke-width:0.264583;stroke-linecap:round;stroke-miterlimit:4;stroke-dasharray:none;paint-order:markers fill stroke;stop-color:#000000"
           id="path2344" />
        <g
           id="g2354"
           transform="translate(-14094.077,4744.6754)">
          <path
             id="path2346"
             style="opacity:1;fill:#828382;fill-opacity:1;stroke:none;stroke-width:0.999999;stroke-linecap:round;stroke-miterlimit:4;stroke-dasharray:none;paint-order:markers fill stroke;stop-color:#000000"
             d="m 53608.198,-17282.535 c 8.354,0 15.126,6.771 15.126,15.125 0.53,9.733 -2.998,18.866 -11.544,26.836 -11.575,9.458 -26.528,14.834 -41.963,14.834 -15.491,0 -30.495,-5.414 -42.442,-15.31 23.58,4.871 45.767,-2.246 68.478,-34.941 2.053,-3.724 7.001,-6.544 12.345,-6.544 z"
             sodipodi:nodetypes="sccsccs"
             transform="scale(0.26458334)" />
          <path
             id="path2348"
             style="fill:#828382;fill-opacity:1;stroke:none;stroke-width:0.999999px;stroke-linecap:butt;stroke-linejoin:miter;stroke-opacity:1"
             d="m 53597.305,-17298.749 c 27.954,-2.213 34.941,21.59 27.246,44.216 7.612,-11.073 11.687,-24.193 11.687,-37.63 v 0 c 0,-25.462 -14.555,-48.683 -37.452,-59.775 8.54,9.4 19.686,28.012 -1.481,53.189 z"
             sodipodi:nodetypes="ccsscc"
             transform="scale(0.26458334)" />
          <path
             id="path2350"
             style="opacity:1;fill:#ffd42a;fill-opacity:1;stroke:none;stroke-width:0.999999;stroke-linecap:round;stroke-miterlimit:4;stroke-dasharray:none;paint-order:markers fill stroke;stop-color:#000000"
             d="m 53563.086,-17294.755 c 8.353,0 15.125,6.772 15.125,15.125 1.081,17.351 -18.95,47.372 -50.811,38.584 -2.811,-2.333 -5.426,-4.894 -7.811,-7.677 -9.659,-27.813 10.537,-46.011 21.251,-50.91 -2.211,1.257 -3.187,4.294 -3.187,7.02 0,3.999 3.243,7.242 7.242,7.242 2.399,0 4.641,-1.188 5.959,-3.141 2.717,-3.77 7.186,-6.242 12.232,-6.243 z"
             sodipodi:nodetypes="sccccsscs"
             transform="scale(0.26458334)" />
          <path
             transform="scale(0.26458334)"
             id="path2352"
             style="opacity:1;fill:#2da003;fill-opacity:1;stroke:none;stroke-width:0.999999;stroke-linecap:round;stroke-miterlimit:4;stroke-dasharray:none;paint-order:markers fill stroke;stop-color:#000000"
             d="m 53569.816,-17358.586 c -36.685,0 -66.423,29.737 -66.423,66.422 0,15.962 5.748,31.39 16.195,43.451 -13.202,-41.75 31.048,-58.767 51.902,-61.045 20.854,-2.278 31.141,-13.242 31.141,-25.263 0,-10.877 -7.978,-19.889 -18.668,-21.801 -4.813,-1.268 -9.467,-1.764 -14.147,-1.764 z m -2.888,10.307 a 14.081913,14.081913 0 0 1 0.03,0 14.081913,14.081913 0 0 1 14.084,14.082 14.081913,14.081913 0 0 1 -14.084,14.082 14.081913,14.081913 0 0 1 -14.082,-14.082 14.081913,14.081913 0 0 1 14.051,-14.082 z" />
        </g>
        <g
           aria-label="EST."
           id="text2358"
           style="font-style:normal;font-variant:normal;font-weight:600;font-stretch:normal;font-size:4.96726px;line-height:1.25;font-family:Trueno;-inkscape-font-specification:'Trueno, Semi-Bold';font-variant-ligatures:normal;font-variant-caps:normal;font-variant-numeric:normal;font-variant-east-asian:normal;letter-spacing:0px;word-spacing:0px;fill:#ffffff;stroke-width:0.124182">
          <path
             d="m 52.04866,173.68834 v -0.65071 h -2.64755 v 3.47708 h 2.702189 V 175.864 h -1.917362 v -0.76993 h 1.678934 v -0.65071 h -1.678934 v -0.75502 z"
             style="font-style:normal;font-variant:normal;font-weight:600;font-stretch:normal;font-size:4.96726px;font-family:Trueno;-inkscape-font-specification:'Trueno, Semi-Bold';font-variant-ligatures:normal;font-variant-caps:normal;font-variant-numeric:normal;font-variant-east-asian:normal;fill:#ffffff;stroke-width:0.124182"
             id="path330" />
          <path
             d="m 53.990703,173.00286 c -0.804696,0 -1.346128,0.39738 -1.346128,1.02822 0,1.23188 1.852788,0.8494 1.852788,1.50508 0,0.21359 -0.193723,0.33281 -0.516595,0.33281 -0.367577,0 -0.874237,-0.20366 -1.23188,-0.52157 l -0.312937,0.64078 c 0.392413,0.33281 0.963648,0.55137 1.534883,0.55137 0.769925,0 1.361029,-0.36758 1.361029,-1.0481 0.005,-1.25175 -1.847821,-0.8941 -1.847821,-1.53488 0,-0.18876 0.178822,-0.28313 0.442086,-0.28313 0.278167,0 0.715286,0.13908 1.082863,0.35764 l 0.303003,-0.65071 c -0.347708,-0.2285 -0.8345,-0.37751 -1.321291,-0.37751 z"
             style="font-style:normal;font-variant:normal;font-weight:600;font-stretch:normal;font-size:4.96726px;font-family:Trueno;-inkscape-font-specification:'Trueno, Semi-Bold';font-variant-ligatures:normal;font-variant-caps:normal;font-variant-numeric:normal;font-variant-east-asian:normal;fill:#ffffff;stroke-width:0.124182"
             id="path332" />
          <path
             d="m 58.444938,173.70324 v -0.66561 h -2.905847 v 0.66561 h 1.058026 v 2.81147 h 0.784827 v -2.81147 z"
             style="font-style:normal;font-variant:normal;font-weight:600;font-stretch:normal;font-size:4.96726px;font-family:Trueno;-inkscape-font-specification:'Trueno, Semi-Bold';font-variant-ligatures:normal;font-variant-caps:normal;font-variant-numeric:normal;font-variant-east-asian:normal;fill:#ffffff;stroke-width:0.124182"
             id="path334" />
          <path
             d="m 58.796215,175.76962 c -0.218559,0 -0.382479,0.15895 -0.382479,0.39241 0,0.2285 0.16392,0.39738 0.382479,0.39738 0.223527,0 0.382479,-0.16888 0.382479,-0.39738 0,-0.23346 -0.158952,-0.39241 -0.382479,-0.39241 z"
             style="font-style:normal;font-variant:normal;font-weight:600;font-stretch:normal;font-size:4.96726px;font-family:Trueno;-inkscape-font-specification:'Trueno, Semi-Bold';font-variant-ligatures:normal;font-variant-caps:normal;font-variant-numeric:normal;font-variant-east-asian:normal;fill:#ffffff;stroke-width:0.124182"
             id="path336" />
        </g>
        <g
           aria-label="1994"
           id="text2362"
           style="font-style:normal;font-variant:normal;font-weight:600;font-stretch:normal;font-size:4.6341px;line-height:1.25;font-family:Trueno;-inkscape-font-specification:'Trueno, Semi-Bold';font-variant-ligatures:normal;font-variant-caps:normal;font-variant-numeric:normal;font-variant-east-asian:normal;letter-spacing:0px;word-spacing:0px;fill:#ffffff;stroke-width:0.115853">
          <path
             d="m 102.18352,176.39801 v -3.24387 h -1.34389 v 0.61634 h 0.61171 v 2.62753 z"
             style="font-style:normal;font-variant:normal;font-weight:600;font-stretch:normal;font-size:4.6341px;font-family:Trueno;-inkscape-font-specification:'Trueno, Semi-Bold';font-variant-ligatures:normal;font-variant-caps:normal;font-variant-numeric:normal;font-variant-east-asian:normal;fill:#ffffff;stroke-width:0.115853"
             id="path339" />
          <path
             d="m 103.92732,176.43045 c 0.89438,0 1.46901,-0.67195 1.46901,-1.70535 0,-0.99633 -0.52365,-1.6034 -1.37633,-1.6034 -0.71828,0 -1.18633,0.42634 -1.18633,1.11219 0,0.63023 0.39854,1.0473 1.04268,1.0473 0.37536,0 0.6534,-0.14365 0.81096,-0.37999 0.0139,0.57462 -0.25024,0.94072 -0.80633,0.94072 -0.25024,0 -0.50048,-0.0741 -0.69511,-0.20854 l -0.27805,0.53756 c 0.26878,0.15756 0.67194,0.25951 1.0195,0.25951 z m 0.10659,-1.70998 c -0.32903,0 -0.51902,-0.18073 -0.51902,-0.48195 0,-0.32439 0.20853,-0.50512 0.53755,-0.50512 0.37536,0 0.55146,0.24098 0.54683,0.49122 0.005,0.27804 -0.2039,0.49585 -0.56536,0.49585 z"
             style="font-style:normal;font-variant:normal;font-weight:600;font-stretch:normal;font-size:4.6341px;font-family:Trueno;-inkscape-font-specification:'Trueno, Semi-Bold';font-variant-ligatures:normal;font-variant-caps:normal;font-variant-numeric:normal;font-variant-east-asian:normal;fill:#ffffff;stroke-width:0.115853"
             id="path341" />
          <path
             d="m 106.83268,176.43045 c 0.89439,0 1.46901,-0.67195 1.46901,-1.70535 0,-0.99633 -0.52365,-1.6034 -1.37632,-1.6034 -0.71829,0 -1.18633,0.42634 -1.18633,1.11219 0,0.63023 0.39853,1.0473 1.04267,1.0473 0.37536,0 0.65341,-0.14365 0.81097,-0.37999 0.0139,0.57462 -0.25024,0.94072 -0.80634,0.94072 -0.25024,0 -0.50048,-0.0741 -0.69511,-0.20854 l -0.27805,0.53756 c 0.26878,0.15756 0.67195,0.25951 1.0195,0.25951 z m 0.10659,-1.70998 c -0.32902,0 -0.51902,-0.18073 -0.51902,-0.48195 0,-0.32439 0.20853,-0.50512 0.53756,-0.50512 0.37536,0 0.55145,0.24098 0.54682,0.49122 0.005,0.27804 -0.2039,0.49585 -0.56536,0.49585 z"
             style="font-style:normal;font-variant:normal;font-weight:600;font-stretch:normal;font-size:4.6341px;font-family:Trueno;-inkscape-font-specification:'Trueno, Semi-Bold';font-variant-ligatures:normal;font-variant-caps:normal;font-variant-numeric:normal;font-variant-east-asian:normal;fill:#ffffff;stroke-width:0.115853"
             id="path343" />
          <path
             d="m 109.37659,175.07266 0.9917,-1.91852 h -0.70439 l -1.05194,1.99266 v 0.51902 h 1.54316 v 0.73219 h 0.68121 v -0.73219 h 0.44951 v -0.59316 h -0.44951 v -0.71365 h -0.68121 v 0.71365 z"
             style="font-style:normal;font-variant:normal;font-weight:600;font-stretch:normal;font-size:4.6341px;font-family:Trueno;-inkscape-font-specification:'Trueno, Semi-Bold';font-variant-ligatures:normal;font-variant-caps:normal;font-variant-numeric:normal;font-variant-east-asian:normal;fill:#ffffff;stroke-width:0.115853"
             id="path345" />
        </g>
        <path
           style="fill:#f7c605;fill-opacity:1;stroke:none;stroke-width:0.264583px;stroke-linecap:butt;stroke-linejoin:miter;stroke-opacity:1"
           d="m 86.407443,152.50204 2.949998,-5.0448 -2.212999,-2.1831 2.921,-0.03 1.209001,-2.9798 1.416999,3.0684 2.742999,-0.089 -2.035,2.3011 0.648999,2.8027 -2.743999,-1.4161 z"
           id="path2375"
           sodipodi:nodetypes="ccccccccccc" />
        <g
           transform="translate(-13226.973,4744.6754)"
           aria-label="ST JER   ME"
           id="g2407"
           style="font-style:normal;font-variant:normal;font-weight:normal;font-stretch:semi-expanded;font-size:7.25876px;line-height:1.25;font-family:Brice;-inkscape-font-specification:'Brice, Semi-Expanded';font-variant-ligatures:normal;font-variant-caps:normal;font-variant-numeric:normal;font-variant-east-asian:normal;letter-spacing:0.264583px;word-spacing:0px;fill:#fffcfc;fill-opacity:1;stroke-width:0.18147">
          <path
             d="m 13287.8,-4584.7641 c 0.372,-0.7452 0.543,-1.3967 0.509,-1.9562 -0.03,-0.5596 -0.263,-0.9478 -0.698,-1.1648 -1.855,-0.9264 -2.923,3.3696 -3.909,2.8771 -0.33,-0.1647 -0.265,-0.7069 0.196,-1.6296 0.188,-0.3773 0.415,-0.7277 0.683,-1.0496 0.267,-0.3219 0.534,-0.5693 0.798,-0.7422 l -0.964,-0.4814 c -0.236,0.203 -0.483,0.4757 -0.736,0.8166 -0.255,0.3441 -0.472,0.6993 -0.656,1.0671 -0.223,0.4471 -0.374,0.8751 -0.453,1.2793 -0.08,0.4042 -0.07,0.7656 0.03,1.0874 0.1,0.3217 0.287,0.5514 0.569,0.6924 1.877,0.9375 2.977,-3.3347 3.925,-2.8612 0.358,0.179 0.308,0.7322 -0.155,1.6581 -0.48,0.9607 -1.134,1.7393 -1.896,2.1945 l 1.008,0.5591 c 0.309,-0.2775 0.629,-0.6406 0.957,-1.083 0.331,-0.4408 0.594,-0.8641 0.794,-1.2636 z"
             style="font-style:normal;font-variant:normal;font-weight:normal;font-stretch:semi-expanded;font-size:7.25876px;font-family:Brice;-inkscape-font-specification:'Brice, Semi-Expanded';font-variant-ligatures:normal;font-variant-caps:normal;font-variant-numeric:normal;font-variant-east-asian:normal;fill:#fffcfc;fill-opacity:1;stroke-width:0.18147"
             id="path2393" />
          <path
             d="m 13291.704,-4590.3 c -0.27,-0.1329 -0.593,-0.3796 -0.976,-0.7424 l -2.089,-1.975 0.865,-0.9142 c 0.284,-0.3013 0.539,-0.509 0.767,-0.6307 l -0.962,-0.6024 -3.558,3.7624 0.655,0.9269 c 0.1,-0.2234 0.295,-0.4921 0.589,-0.8037 l 0.867,-0.9168 2.089,1.975 c 0.363,0.3433 0.63,0.6543 0.796,0.933 z"
             style="font-style:normal;font-variant:normal;font-weight:normal;font-stretch:semi-expanded;font-size:7.25876px;font-family:Brice;-inkscape-font-specification:'Brice, Semi-Expanded';font-variant-ligatures:normal;font-variant-caps:normal;font-variant-numeric:normal;font-variant-east-asian:normal;fill:#fffcfc;fill-opacity:1;stroke-width:0.18147"
             id="path2395" />
          <path
             d="m 13296.749,-4593.8609 c 1.447,-0.6964 1.889,-1.7313 1.249,-3.0598 l -0.759,-1.5776 c -0.225,-0.4662 -0.36,-0.8535 -0.405,-1.1585 l -1.264,0.6088 c 0.212,0.2362 0.427,0.585 0.647,1.0417 l 0.675,1.4019 c 0.413,0.8591 0.214,1.5726 -0.626,1.977 -0.463,0.2229 -0.892,0.2957 -1.283,0.2122 l 0.283,0.9379 c 0.517,-0.029 1.01,-0.156 1.483,-0.3836 z"
             style="font-style:normal;font-variant:normal;font-weight:normal;font-stretch:semi-expanded;font-size:7.25876px;font-family:Brice;-inkscape-font-specification:'Brice, Semi-Expanded';font-variant-ligatures:normal;font-variant-caps:normal;font-variant-numeric:normal;font-variant-east-asian:normal;fill:#fffcfc;fill-opacity:1;stroke-width:0.18147"
             id="path2397" />
          <path
             d="m 13305.391,-4596.5122 v -1.1742 c -0.204,0.1664 -0.555,0.2946 -1.058,0.3851 l -2.909,0.524 -0.197,-1.0953 2.302,-0.4147 c 0.314,-0.056 0.568,-0.088 0.758,-0.09 l -0.183,-1.0151 c -0.165,0.059 -0.411,0.1173 -0.742,0.177 l -2.302,0.4147 -0.194,-1.0779 2.856,-0.5146 c 0.471,-0.085 0.803,-0.1014 0.997,-0.046 l -0.373,-1.0492 -4.894,0.8816 c 0.148,0.3011 0.265,0.6905 0.353,1.1754 l 0.468,2.6022 c 0.09,0.5092 0.119,0.9185 0.08,1.2244 z"
             style="font-style:normal;font-variant:normal;font-weight:normal;font-stretch:semi-expanded;font-size:7.25876px;font-family:Brice;-inkscape-font-specification:'Brice, Semi-Expanded';font-variant-ligatures:normal;font-variant-caps:normal;font-variant-numeric:normal;font-variant-east-asian:normal;fill:#fffcfc;fill-opacity:1;stroke-width:0.18147"
             id="path2399" />
          <path
             d="m 13311.981,-4595.7121 c 0.362,0.052 0.727,-0.049 0.928,-0.2491 l 0.131,-1.2489 c -0.189,0.3165 -0.396,0.455 -0.76,0.4022 -0.33,-0.048 -0.479,-0.309 -0.619,-0.6015 -0.1,-0.1972 -0.235,-0.4064 -0.417,-0.5867 -0.181,-0.1802 -0.503,-0.3306 -0.91,-0.3895 l -0.06,-0.01 v -0.06 l 0.439,0.063 c 0.579,0.084 1.064,0.021 1.459,-0.183 0.395,-0.2043 0.621,-0.5082 0.68,-0.9151 0.06,-0.4174 -0.08,-0.767 -0.417,-1.0523 -0.339,-0.2818 -0.817,-0.4691 -1.434,-0.5583 l -3.477,-0.5027 c 0.04,0.3144 0.03,0.7239 -0.04,1.2255 l -0.379,2.6168 c -0.07,0.4946 -0.172,0.8919 -0.304,1.188 l 1.379,0.1993 c -0.05,-0.2968 -0.03,-0.6888 0.04,-1.1764 l 0.108,-0.7471 c 0.147,-0.022 0.465,0 0.953,0.073 0.438,0.063 0.767,0.2183 0.958,0.4071 0.188,0.1883 0.318,0.4291 0.401,0.6738 0.08,0.2443 0.15,0.4945 0.264,0.7223 0.159,0.3381 0.459,0.6178 1.072,0.7066 z m -3.336,-4.7369 2.111,0.3053 c 0.313,0.045 0.557,0.1378 0.73,0.2809 0.169,0.1427 0.241,0.3142 0.212,0.5142 -0.06,0.4104 -0.508,0.5891 -1.178,0.4922 l -2.062,-0.2983 z"
             style="font-style:normal;font-variant:normal;font-weight:normal;font-stretch:semi-expanded;font-size:7.25876px;font-family:Brice;-inkscape-font-specification:'Brice, Semi-Expanded';font-variant-ligatures:normal;font-variant-caps:normal;font-variant-numeric:normal;font-variant-east-asian:normal;fill:#fffcfc;fill-opacity:1;stroke-width:0.18147"
             id="path2401" />
          <path
             d="m 13320.877,-4590.9792 c 0.181,-0.281 0.465,-0.5914 0.843,-0.9292 l 1.802,-1.6107 0.04,0.045 -1.36,3.9776 0.281,0.3145 4.107,-0.904 0.05,0.058 -1.802,1.6107 c -0.378,0.3378 -0.718,0.5847 -1.018,0.7336 l 0.931,1.0413 c 0.168,-0.2692 0.443,-0.5725 0.821,-0.9103 l 1.972,-1.7619 c 0.399,-0.3566 0.728,-0.5941 0.996,-0.7146 l -0.987,-1.1047 -2.88,0.644 c -0.537,0.123 -0.988,0.2408 -1.348,0.3586 l -0.05,-0.058 c 0.178,-0.4017 0.348,-0.8339 0.505,-1.3021 l 0.969,-2.782 -1.011,-1.1311 c -0.149,0.2526 -0.422,0.5536 -0.821,0.9102 l -1.972,1.7619 c -0.378,0.3377 -0.71,0.5776 -0.996,0.7147 z"
             style="font-style:normal;font-variant:normal;font-weight:normal;font-stretch:semi-expanded;font-size:7.25876px;font-family:Brice;-inkscape-font-specification:'Brice, Semi-Expanded';font-variant-ligatures:normal;font-variant-caps:normal;font-variant-numeric:normal;font-variant-east-asian:normal;fill:#fffcfc;fill-opacity:1;stroke-width:0.18147"
             id="path2403" />
          <path
             d="m 13327.232,-4580.5037 1.153,-0.2263 c -0.203,-0.168 -0.397,-0.4881 -0.583,-0.9634 l -1.077,-2.7528 1.037,-0.4054 0.852,2.1784 c 0.116,0.2971 0.196,0.5399 0.235,0.7265 l 0.96,-0.3758 c -0.09,-0.1514 -0.194,-0.3806 -0.317,-0.6942 l -0.852,-2.1784 1.02,-0.3991 1.057,2.7033 c 0.174,0.4456 0.255,0.7681 0.238,0.9687 l 0.958,-0.5687 -1.812,-4.6308 c -0.267,0.2033 -0.626,0.3934 -1.085,0.5729 l -2.463,0.9633 c -0.481,0.1886 -0.878,0.2942 -1.185,0.3155 z"
             style="font-style:normal;font-variant:normal;font-weight:normal;font-stretch:semi-expanded;font-size:7.25876px;font-family:Brice;-inkscape-font-specification:'Brice, Semi-Expanded';font-variant-ligatures:normal;font-variant-caps:normal;font-variant-numeric:normal;font-variant-east-asian:normal;fill:#fffcfc;fill-opacity:1;stroke-width:0.18147"
             id="path2405" />
        </g>
        <g
           transform="translate(-13226.973,4744.6754)"
           aria-label="SCHOOL"
           id="g2421"
           style="font-style:normal;font-variant:normal;font-weight:normal;font-stretch:semi-expanded;font-size:7.25876px;line-height:1.25;font-family:Brice;-inkscape-font-specification:'Brice, Semi-Expanded';font-variant-ligatures:normal;font-variant-caps:normal;font-variant-numeric:normal;font-variant-east-asian:normal;letter-spacing:1.32292px;word-spacing:0px;fill:#fffcfc;fill-opacity:1;stroke-width:0.18147">
          <path
             d="m 13288.376,-4553.4241 c 0.637,0.5363 1.23,0.8551 1.782,0.9535 0.552,0.099 0.983,-0.034 1.296,-0.4057 1.335,-1.5863 -2.591,-3.6309 -1.881,-4.4742 0.237,-0.282 0.749,-0.092 1.538,0.572 0.323,0.2716 0.61,0.5739 0.86,0.9096 0.251,0.3357 0.429,0.6524 0.535,0.9502 l 0.694,-0.8244 c -0.142,-0.277 -0.35,-0.5812 -0.622,-0.9075 -0.274,-0.3285 -0.569,-0.6227 -0.883,-0.8874 -0.383,-0.3218 -0.764,-0.5683 -1.138,-0.7398 -0.375,-0.1716 -0.728,-0.2468 -1.064,-0.2281 -0.335,0.019 -0.603,0.15 -0.806,0.3914 -1.351,1.6053 2.545,3.6751 1.862,4.4859 -0.258,0.3064 -0.784,0.1278 -1.576,-0.5387 -0.821,-0.6915 -1.425,-1.51 -1.689,-2.3576 l -0.78,0.8494 c 0.198,0.3653 0.476,0.7615 0.829,1.1839 0.351,0.4251 0.701,0.7799 1.043,1.0675 z"
             style="font-style:normal;font-variant:normal;font-weight:normal;font-stretch:semi-expanded;font-size:7.25876px;font-family:Brice;-inkscape-font-specification:'Brice, Semi-Expanded';font-variant-ligatures:normal;font-variant-caps:normal;font-variant-numeric:normal;font-variant-east-asian:normal;fill:#fffcfc;fill-opacity:1;stroke-width:0.18147"
             id="path2409" />
          <path
             d="m 13295.157,-4549.2101 c 0.817,0.3781 1.575,0.5646 2.267,0.5611 l 0.492,-1.0614 c -0.307,0.073 -0.651,0.081 -1.032,0.026 -0.384,-0.057 -0.758,-0.1674 -1.125,-0.3371 -0.418,-0.1935 -0.764,-0.4241 -1.037,-0.687 -0.273,-0.263 -0.453,-0.5573 -0.54,-0.875 -0.09,-0.3191 -0.06,-0.634 0.08,-0.946 0.416,-0.9323 1.639,-1.0929 2.805,-0.5334 0.341,0.1578 0.642,0.3517 0.903,0.5817 0.256,0.2317 0.448,0.4654 0.573,0.7026 l 0.544,-0.9472 c -0.182,-0.2324 -0.423,-0.4614 -0.724,-0.6902 -0.303,-0.2303 -0.637,-0.428 -1.007,-0.5992 -1.679,-0.7771 -3.416,-0.5344 -4.129,1.0064 -0.28,0.6047 -0.31,1.2351 -0.112,1.7841 0.297,0.8284 1.034,1.5483 2.04,2.0143 z"
             style="font-style:normal;font-variant:normal;font-weight:normal;font-stretch:semi-expanded;font-size:7.25876px;font-family:Brice;-inkscape-font-specification:'Brice, Semi-Expanded';font-variant-ligatures:normal;font-variant-caps:normal;font-variant-numeric:normal;font-variant-east-asian:normal;fill:#fffcfc;fill-opacity:1;stroke-width:0.18147"
             id="path2411" />
          <path
             d="m 13300.75,-4547.4949 c -0.04,-0.2903 -0.03,-0.682 0.05,-1.1828 l 0.139,-0.8895 3.134,0.4898 -0.139,0.8895 c -0.07,0.4307 -0.17,0.8094 -0.312,1.1424 l 1.38,0.2156 c -0.04,-0.2903 -0.02,-0.6961 0.06,-1.2249 l 0.408,-2.6123 c 0.08,-0.5008 0.183,-0.8969 0.318,-1.1844 l -1.38,-0.2156 c 0.04,0.3148 0.02,0.7101 -0.05,1.1828 l -0.137,0.8755 -3.134,-0.4898 0.137,-0.8755 c 0.07,-0.4587 0.174,-0.8409 0.311,-1.1423 l -1.376,-0.2151 c 0.04,0.3329 0.02,0.7392 -0.05,1.2259 l -0.408,2.6124 c -0.08,0.5113 -0.188,0.9068 -0.325,1.1833 z"
             style="font-style:normal;font-variant:normal;font-weight:normal;font-stretch:semi-expanded;font-size:7.25876px;font-family:Brice;-inkscape-font-specification:'Brice, Semi-Expanded';font-variant-ligatures:normal;font-variant-caps:normal;font-variant-numeric:normal;font-variant-east-asian:normal;fill:#fffcfc;fill-opacity:1;stroke-width:0.18147"
             id="path2413" />
          <path
             d="m 13311.968,-4547.6147 c 0.439,-0.2708 0.766,-0.6229 0.982,-1.0601 0.217,-0.4336 0.287,-0.9188 0.214,-1.4527 -0.109,-0.8007 -0.532,-1.4371 -1.143,-1.8047 -0.612,-0.3675 -1.432,-0.5099 -2.328,-0.3881 -0.895,0.1218 -1.648,0.4781 -2.139,0.9956 -0.492,0.5174 -0.729,1.2437 -0.62,2.0444 0.07,0.5338 0.269,0.9828 0.594,1.3429 0.325,0.3636 0.734,0.6154 1.233,0.7587 0.496,0.1437 1.044,0.1764 1.644,0.095 0.601,-0.082 1.12,-0.2596 1.563,-0.5308 z m -3.167,-0.6425 c -0.415,-0.2619 -0.658,-0.6545 -0.729,-1.1778 -0.157,-1.0482 0.62,-1.8585 1.742,-1.9933 1.118,-0.1699 2.083,0.4036 2.212,1.4556 0.07,0.5233 -0.06,0.9665 -0.384,1.3292 -0.329,0.3667 -0.782,0.5892 -1.358,0.6675 -0.576,0.078 -1.072,-0.015 -1.483,-0.2812 z"
             style="font-style:normal;font-variant:normal;font-weight:normal;font-stretch:semi-expanded;font-size:7.25876px;font-family:Brice;-inkscape-font-specification:'Brice, Semi-Expanded';font-variant-ligatures:normal;font-variant-caps:normal;font-variant-numeric:normal;font-variant-east-asian:normal;fill:#fffcfc;fill-opacity:1;stroke-width:0.18147"
             id="path2415" />
          <path
             d="m 13319.721,-4550.3464 c 0.342,-0.386 0.553,-0.8178 0.634,-1.2987 0.08,-0.4777 0,-0.9625 -0.215,-1.4526 -0.336,-0.7351 -0.924,-1.2223 -1.616,-1.3975 -0.691,-0.1752 -1.518,-0.074 -2.34,0.3009 -0.823,0.3753 -1.44,0.9339 -1.761,1.5712 -0.321,0.6373 -0.338,1.4012 0,2.1363 0.224,0.4901 0.542,0.863 0.957,1.114 0.416,0.2543 0.881,0.377 1.4,0.3701 0.515,-0.01 1.05,-0.1325 1.601,-0.3842 0.551,-0.2517 0.997,-0.5721 1.343,-0.9595 z m -3.218,0.2998 c -0.473,-0.1309 -0.819,-0.4366 -1.038,-0.917 -0.453,-0.9582 0.06,-1.9584 1.092,-2.4118 1.022,-0.4856 2.111,-0.2154 2.538,0.7546 0.22,0.4804 0.224,0.9421 0.02,1.3836 -0.209,0.4462 -0.578,0.79 -1.107,1.0313 -0.529,0.2414 -1.03,0.295 -1.501,0.1593 z"
             style="font-style:normal;font-variant:normal;font-weight:normal;font-stretch:semi-expanded;font-size:7.25876px;font-family:Brice;-inkscape-font-specification:'Brice, Semi-Expanded';font-variant-ligatures:normal;font-variant-caps:normal;font-variant-numeric:normal;font-variant-east-asian:normal;fill:#fffcfc;fill-opacity:1;stroke-width:0.18147"
             id="path2417" />
          <path
             d="m 13326.022,-4554.4652 c 0.08,-0.066 0.161,-0.1447 0.247,-0.2354 0.09,-0.091 0.152,-0.1655 0.203,-0.2266 0.05,-0.059 0.107,-0.1317 0.17,-0.2169 0.06,-0.085 0.101,-0.1321 0.11,-0.144 l -0.67,-0.9001 c -0.08,0.1493 -0.209,0.3242 -0.39,0.5275 -0.183,0.2056 -0.389,0.4068 -0.622,0.6032 l -1.695,1.4268 -1.797,-2.1337 c -0.155,-0.1844 -0.304,-0.3833 -0.447,-0.5918 -0.143,-0.2085 -0.246,-0.3808 -0.313,-0.5148 l -1.065,0.8972 c 0.278,0.1873 0.573,0.4667 0.891,0.8436 l 1.703,2.0225 c 0.376,0.4474 0.626,0.8159 0.75,1.1058 0.286,-0.4258 0.638,-0.8156 1.056,-1.1672 0.23,-0.194 0.549,-0.4158 0.952,-0.6629 0.401,-0.2448 0.709,-0.4574 0.917,-0.6332 z"
             style="font-style:normal;font-variant:normal;font-weight:normal;font-stretch:semi-expanded;font-size:7.25876px;font-family:Brice;-inkscape-font-specification:'Brice, Semi-Expanded';font-variant-ligatures:normal;font-variant-caps:normal;font-variant-numeric:normal;font-variant-east-asian:normal;fill:#fffcfc;fill-opacity:1;stroke-width:0.18147"
             id="path2419" />
        </g>
      </g>
      <g
         aria-label="ST.JEROME"
         id="text64"
         style="font-style:normal;font-variant:normal;font-weight:normal;font-stretch:normal;font-size:51.391px;line-height:1.25;font-family:'Times New Roman';-inkscape-font-specification:'Times New Roman, Normal';font-variant-ligatures:normal;font-variant-caps:normal;font-variant-numeric:normal;font-variant-east-asian:normal;letter-spacing:0px;word-spacing:0px;fill:#ffffff;fill-opacity:0.99193549;stroke-width:1.28478"
         transform="matrix(0.99990075,0,0,0.99990075,1.5872904,0)">
        <path
           d="m 20.350633,310.51401 v 11.76874 h -0.928451 q -0.451679,-3.38759 -1.631062,-5.39506 -1.15429,-2.00746 -3.31231,-3.18684 -2.158021,-1.17938 -4.466601,-1.17938 -2.6096991,0 -4.3160409,1.60597 -1.7063417,1.58087 -1.7063417,3.61343 0,1.55578 1.0790102,2.83553 1.5557822,1.882 7.4025124,5.01866 4.767719,2.55951 6.499154,3.93964 1.756529,1.35503 2.684979,3.21194 0.953544,1.8569 0.953544,3.88945 0,3.86436 -3.011191,6.67481 -2.986098,2.78535 -7.703631,2.78535 -1.480503,0 -2.7853523,-0.22584 -0.7778911,-0.12547 -3.2370307,-0.90336 -2.4340464,-0.80298 -3.0864712,-0.80298 -0.6273315,0 -1.0037304,0.3764 -0.3513057,0.3764 -0.5269585,1.55578 H 0.32621025 V 334.42788 H 1.2546609 q 0.6524248,3.66362 1.7565283,5.49543 1.1041035,1.80671 3.362497,3.01119 2.2834868,1.20448 4.9935588,1.20448 3.136658,0 4.943373,-1.65616 1.831808,-1.65615 1.831808,-3.91455 0,-1.25466 -0.702612,-2.53442 -0.677518,-1.27975 -2.132927,-2.38386 Q 14.32825,332.8972 9.9620225,330.46315 5.5957951,328.00401 3.7388938,326.5486 1.9070857,325.09319 0.95354178,323.33666 -2.1457672e-6,321.58013 -2.1457672e-6,319.4723 q 0,-3.66362 2.8104452457672,-6.29841 2.8104453,-2.65988 7.1515794,-2.65988 2.7100725,0 5.7463565,1.32994 1.405223,0.62733 1.982368,0.62733 0.652425,0 1.053917,-0.3764 0.426585,-0.40149 0.677518,-1.58087 z"
           style="font-style:normal;font-variant:normal;font-weight:normal;font-stretch:normal;font-size:51.391px;font-family:'Times New Roman';-inkscape-font-specification:'Times New Roman, Normal';font-variant-ligatures:normal;font-variant-caps:normal;font-variant-numeric:normal;font-variant-east-asian:normal;fill:#ffffff;fill-opacity:0.99193549;stroke-width:1.28478"
           id="path348" />
        <path
           d="m 55.129892,311.2919 0.376399,7.97965 h -0.953544 q -0.276025,-2.10783 -0.752797,-3.01119 -0.777892,-1.45541 -2.082741,-2.13292 -1.279756,-0.70262 -3.38759,-0.70262 h -4.792813 v 25.99662 q 0,3.13666 0.677518,3.91455 0.953544,1.05392 2.935911,1.05392 h 1.179384 v 0.92845 H 33.900993 v -0.92845 h 1.204477 q 2.15802,0 3.061378,-1.30485 0.552052,-0.80299 0.552052,-3.66362 v -25.99662 h -4.090202 q -2.38386,0 -3.38759,0.35131 -1.30485,0.47677 -2.2333,1.83181 -0.928451,1.35503 -1.104104,3.66361 H 26.95016 l 0.401492,-7.97965 z"
           style="font-style:normal;font-variant:normal;font-weight:normal;font-stretch:normal;font-size:51.391px;font-family:'Times New Roman';-inkscape-font-specification:'Times New Roman, Normal';font-variant-ligatures:normal;font-variant-caps:normal;font-variant-numeric:normal;font-variant-east-asian:normal;fill:#ffffff;fill-opacity:0.99193549;stroke-width:1.28478"
           id="path350" />
        <path
           d="m 59.42084,340.45027 q 1.179383,0 1.982367,0.82807 0.802985,0.80299 0.802985,1.95728 0,1.15429 -0.828078,1.98237 -0.802984,0.80298 -1.957274,0.80298 -1.15429,0 -1.982368,-0.80298 -0.802984,-0.82808 -0.802984,-1.98237 0,-1.17938 0.802984,-1.98237 0.828078,-0.80298 1.982368,-0.80298 z"
           style="font-style:normal;font-variant:normal;font-weight:normal;font-stretch:normal;font-size:51.391px;font-family:'Times New Roman';-inkscape-font-specification:'Times New Roman, Normal';font-variant-ligatures:normal;font-variant-caps:normal;font-variant-numeric:normal;font-variant-east-asian:normal;fill:#ffffff;fill-opacity:0.99193549;stroke-width:1.28478"
           id="path352" />
        <path
           d="m 70.963742,312.22035 v -0.92845 h 14.579184 v 0.92845 h -1.229569 q -2.082741,0 -3.036285,1.22957 -0.602238,0.80298 -0.602238,3.86436 v 16.63683 q 0,3.83927 -0.853171,6.22313 -0.828078,2.38386 -2.885725,4.16548 -2.057648,1.75653 -4.968466,1.75653 -2.358767,0 -3.713803,-1.15429 -1.355036,-1.17938 -1.355036,-2.68498 0,-1.22957 0.627332,-1.8569 0.828077,-0.77789 1.932181,-0.77789 0.802984,0 1.430316,0.52696 0.652425,0.52696 1.631062,2.81044 0.577145,1.35504 1.480502,1.35504 0.677518,0 1.254663,-0.82808 0.602239,-0.82808 0.602239,-2.93591 v -23.23636 q 0,-2.58461 -0.326213,-3.41268 -0.250932,-0.62734 -1.053917,-1.07901 -1.07901,-0.60224 -2.283487,-0.60224 z"
           style="font-style:normal;font-variant:normal;font-weight:normal;font-stretch:normal;font-size:51.391px;font-family:'Times New Roman';-inkscape-font-specification:'Times New Roman, Normal';font-variant-ligatures:normal;font-variant-caps:normal;font-variant-numeric:normal;font-variant-east-asian:normal;fill:#ffffff;fill-opacity:0.99193549;stroke-width:1.28478"
           id="path354" />
        <path
           d="m 96.558868,313.1488 v 13.44999 h 7.477792 q 2.91082,0 3.88945,-0.87827 1.30485,-1.15429 1.45541,-4.06511 h 0.92845 v 11.84402 h -0.92845 q -0.3513,-2.48423 -0.70261,-3.18684 -0.45168,-0.87826 -1.4805,-1.38013 -1.02882,-0.50187 -3.16175,-0.50187 h -7.477792 v 11.21669 q 0,2.2584 0.200746,2.76026 0.200746,0.47677 0.702611,0.77789 0.501865,0.27603 1.907088,0.27603 h 5.771447 q 2.88573,0 4.19058,-0.40149 1.30485,-0.4015 2.50932,-1.58088 1.55579,-1.55578 3.18685,-4.69244 h 1.00373 l -2.93591,8.53171 H 86.872869 v -0.92845 h 1.204476 q 1.204477,0 2.283487,-0.57715 0.802984,-0.40149 1.07901,-1.20447 0.301119,-0.80299 0.301119,-3.28722 v -22.10716 q 0,-3.23703 -0.652424,-3.98983 -0.903358,-1.00373 -3.011192,-1.00373 h -1.204476 v -0.92845 h 26.222461 l 0.3764,7.4527 h -0.97864 q -0.52696,-2.68498 -1.17938,-3.68871 -0.62734,-1.00373 -1.882,-1.53069 -1.00373,-0.3764 -3.53815,-0.3764 z"
           style="font-style:normal;font-variant:normal;font-weight:normal;font-stretch:normal;font-size:51.391px;font-family:'Times New Roman';-inkscape-font-specification:'Times New Roman, Normal';font-variant-ligatures:normal;font-variant-caps:normal;font-variant-numeric:normal;font-variant-east-asian:normal;fill:#ffffff;fill-opacity:0.99193549;stroke-width:1.28478"
           id="path356" />
        <path
           d="m 151.96479,345.31836 h -9.08376 l -11.51781,-15.90913 q -1.27976,0.0502 -2.08274,0.0502 -0.32621,0 -0.70261,0 -0.3764,-0.0251 -0.77789,-0.0502 v 9.88675 q 0,3.21193 0.70261,3.98983 0.95354,1.1041 2.86063,1.1041 h 1.32994 v 0.92845 h -14.57918 v -0.92845 h 1.27976 q 2.15802,0 3.08647,-1.40522 0.52696,-0.7779 0.52696,-3.68871 v -21.9817 q 0,-3.21194 -0.70262,-3.98983 -0.97863,-1.1041 -2.91081,-1.1041 h -1.27976 v -0.92845 h 12.39607 q 5.42014,0 7.97966,0.80298 2.5846,0.77789 4.36622,2.91082 1.80672,2.10783 1.80672,5.04375 0,3.13665 -2.05765,5.44523 -2.03255,2.30858 -6.3235,3.26213 l 7.02611,9.76128 q 2.40896,3.36249 4.14039,4.4666 1.73144,1.1041 4.51679,1.40522 z m -24.16481,-17.49 q 0.47677,0 0.82808,0.0251 0.3513,0 0.57714,0 4.86809,0 7.32723,-2.10783 2.48424,-2.10784 2.48424,-5.36996 0,-3.18685 -2.00747,-5.16921 -1.98236,-2.00746 -5.26958,-2.00746 -1.45541,0 -3.93964,0.47677 z"
           style="font-style:normal;font-variant:normal;font-weight:normal;font-stretch:normal;font-size:51.391px;font-family:'Times New Roman';-inkscape-font-specification:'Times New Roman, Normal';font-variant-ligatures:normal;font-variant-caps:normal;font-variant-numeric:normal;font-variant-east-asian:normal;fill:#ffffff;fill-opacity:0.99193549;stroke-width:1.28478"
           id="path358" />
        <path
           d="m 170.35815,310.51401 q 6.62462,0 11.46762,5.04374 4.86809,5.01865 4.86809,12.54663 0,7.75382 -4.89318,12.87285 -4.89319,5.11902 -11.84402,5.11902 -7.02611,0 -11.81893,-4.99356 -4.76772,-4.99356 -4.76772,-12.92303 0,-8.10512 5.52052,-13.22415 4.79281,-4.4415 11.46762,-4.4415 z m -0.47677,1.8318 q -4.56697,0 -7.32723,3.38759 -3.43778,4.21567 -3.43778,12.34589 0,8.33096 3.56324,12.82266 2.73517,3.41268 7.22686,3.41268 4.79282,0 7.90438,-3.7389 3.13666,-3.73889 3.13666,-11.79383 0,-8.73245 -3.43778,-13.0234 -2.76026,-3.41269 -7.62835,-3.41269 z"
           style="font-style:normal;font-variant:normal;font-weight:normal;font-stretch:normal;font-size:51.391px;font-family:'Times New Roman';-inkscape-font-specification:'Times New Roman, Normal';font-variant-ligatures:normal;font-variant-caps:normal;font-variant-numeric:normal;font-variant-east-asian:normal;fill:#ffffff;fill-opacity:0.99193549;stroke-width:1.28478"
           id="path360" />
        <path
           d="M 209.72947,345.31836 196.5806,316.68695 v 22.73449 q 0,3.13666 0.67752,3.91455 0.92845,1.05392 2.93591,1.05392 h 1.20447 v 0.92845 h -11.84401 v -0.92845 h 1.20447 q 2.15802,0 3.06138,-1.30485 0.55205,-0.80299 0.55205,-3.66362 v -22.23263 q 0,-2.25839 -0.50186,-3.26212 -0.35131,-0.7277 -1.30485,-1.20448 -0.92845,-0.50186 -3.01119,-0.50186 v -0.92845 h 9.63581 l 12.34588,26.62395 12.14514,-26.62395 h 9.63581 v 0.92845 h -1.17938 q -2.18311,0 -3.08647,1.30485 -0.55205,0.80298 -0.55205,3.66361 v 22.23263 q 0,3.13666 0.70261,3.91455 0.92845,1.05392 2.93591,1.05392 h 1.17938 v 0.92845 h -14.45372 v -0.92845 h 1.20448 q 2.18311,0 3.06138,-1.30485 0.55205,-0.80299 0.55205,-3.66362 v -22.73449 l -13.12378,28.63141 z"
           style="font-style:normal;font-variant:normal;font-weight:normal;font-stretch:normal;font-size:51.391px;font-family:'Times New Roman';-inkscape-font-specification:'Times New Roman, Normal';font-variant-ligatures:normal;font-variant-caps:normal;font-variant-numeric:normal;font-variant-east-asian:normal;fill:#ffffff;fill-opacity:0.99193549;stroke-width:1.28478"
           id="path362" />
        <path
           d="m 245.11097,313.1488 v 13.44999 h 7.47779 q 2.91082,0 3.88946,-0.87827 1.30485,-1.15429 1.45541,-4.06511 h 0.92845 v 11.84402 h -0.92845 q -0.35131,-2.48423 -0.70262,-3.18684 -0.45167,-0.87826 -1.4805,-1.38013 -1.02882,-0.50187 -3.16175,-0.50187 h -7.47779 v 11.21669 q 0,2.2584 0.20074,2.76026 0.20075,0.47677 0.70262,0.77789 0.50186,0.27603 1.90708,0.27603 h 5.77145 q 2.88573,0 4.19058,-0.40149 1.30485,-0.4015 2.50932,-1.58088 1.55579,-1.55578 3.18685,-4.69244 h 1.00373 l -2.93591,8.53171 h -26.22246 v -0.92845 h 1.20448 q 1.20447,0 2.28348,-0.57715 0.80299,-0.40149 1.07901,-1.20447 0.30112,-0.80299 0.30112,-3.28722 v -22.10716 q 0,-3.23703 -0.65242,-3.98983 -0.90336,-1.00373 -3.01119,-1.00373 h -1.20448 v -0.92845 h 26.22246 l 0.3764,7.4527 h -0.97864 q -0.52696,-2.68498 -1.17938,-3.68871 -0.62734,-1.00373 -1.882,-1.53069 -1.00373,-0.3764 -3.53815,-0.3764 z"
           style="font-style:normal;font-variant:normal;font-weight:normal;font-stretch:normal;font-size:51.391px;font-family:'Times New Roman';-inkscape-font-specification:'Times New Roman, Normal';font-variant-ligatures:normal;font-variant-caps:normal;font-variant-numeric:normal;font-variant-east-asian:normal;fill:#ffffff;fill-opacity:0.99193549;stroke-width:1.28478"
           id="path364" />
      </g>
      <g
         aria-label="SCHOOL"
         id="text68"
         style="font-style:normal;font-variant:normal;font-weight:normal;font-stretch:normal;font-size:67.5055px;line-height:1.25;font-family:'Times New Roman';-inkscape-font-specification:'Times New Roman, Normal';font-variant-ligatures:normal;font-variant-caps:normal;font-variant-numeric:normal;font-variant-east-asian:normal;letter-spacing:0px;word-spacing:0px;fill:#ffffff;fill-opacity:0.99193549;stroke-width:1.68764"
         transform="matrix(0.99990075,0,0,0.99990075,1.5872904,0)">
        <path
           d="m 24.619213,358.65542 v 15.45903 h -1.219582 q -0.59331,-4.44983 -2.142509,-7.08676 -1.516236,-2.63694 -4.35094,-4.18613 -2.834704,-1.5492 -5.867177,-1.5492 -3.4280142,0 -5.6694077,2.10954 -2.2413936,2.07659 -2.2413936,4.74648 0,2.04363 1.4173518,3.72467 2.0436236,2.47213 9.7236925,6.59234 6.262718,3.36209 8.537073,5.17498 2.307317,1.77993 3.526899,4.21909 1.252543,2.43917 1.252543,5.10906 0,5.0761 -3.9554,8.76781 -3.922439,3.65874 -10.119233,3.65874 -1.944739,0 -3.6587456,-0.29665 -1.0218118,-0.16481 -4.2520554,-1.18662 -3.1972821,-1.05478 -4.0542855,-1.05478 -0.82404175,0 -1.3184668,0.49443 -0.46146339,0.49442 -0.69219508,2.04362 H -1.6842002 V 390.0679 h 1.21958182 q 0.85700343,4.8124 2.30731688,7.2186 1.4503135,2.37324 4.4168639,3.9554 2.999512,1.58216 6.5593726,1.58216 4.120209,0 6.493449,-2.17547 2.406202,-2.17547 2.406202,-5.14202 0,-1.64808 -0.922927,-3.32913 -0.889965,-1.68104 -2.801742,-3.13136 -1.285505,-0.98885 -7.020836,-4.18613 -5.7353304,-3.23024 -8.174494,-5.14202 -2.40620195,-1.91178 -3.65874542,-4.21909 -1.25254348,-2.30732 -1.25254348,-5.0761 0,-4.8124 3.6917071,-8.27338 3.6917071,-3.49394 9.3940758,-3.49394 3.559861,0 7.548223,1.74697 1.845853,0.82404 2.603972,0.82404 0.857003,0 1.38439,-0.49442 0.560348,-0.52739 0.889965,-2.07659 z"
           style="font-style:normal;font-variant:normal;font-weight:normal;font-stretch:normal;font-size:67.5055px;font-family:'Times New Roman';-inkscape-font-specification:'Times New Roman, Normal';font-variant-ligatures:normal;font-variant-caps:normal;font-variant-numeric:normal;font-variant-east-asian:normal;fill:#ffffff;fill-opacity:0.99193549;stroke-width:1.68764"
           id="path367" />
        <path
           d="m 71.886249,358.65542 1.021812,15.19533 h -1.021812 q -2.043623,-6.82306 -5.834215,-9.82257 -3.790593,-2.99952 -9.097421,-2.99952 -4.449826,0 -8.042648,2.27436 -3.592822,2.24139 -5.669407,7.18564 -2.043624,4.94425 -2.043624,12.29471 0,6.06494 1.944739,10.51477 1.944738,4.44982 5.834215,6.82307 3.922439,2.37324 8.932613,2.37324 4.35094,0 7.680069,-1.84586 3.329129,-1.87881 7.317491,-7.41637 l 1.021812,0.65923 q -3.362091,5.96606 -7.844878,8.73484 -4.482787,2.76878 -10.646619,2.76878 -11.108083,0 -17.205992,-8.24042 -4.548711,-6.13087 -4.548711,-14.43721 0,-6.69122 2.999512,-12.2947 2.999512,-5.60348 8.240418,-8.66892 5.273867,-3.0984 11.503623,-3.0984 4.845365,0 9.558884,2.37324 1.38439,0.72516 1.9777,0.72516 0.889966,0 1.549199,-0.62627 0.857003,-0.88997 1.219582,-2.47213 z"
           style="font-style:normal;font-variant:normal;font-weight:normal;font-stretch:normal;font-size:67.5055px;font-family:'Times New Roman';-inkscape-font-specification:'Times New Roman, Normal';font-variant-ligatures:normal;font-variant-caps:normal;font-variant-numeric:normal;font-variant-east-asian:normal;fill:#ffffff;fill-opacity:0.99193549;stroke-width:1.68764"
           id="path369" />
        <path
           d="M 90.212937,380.41013 H 110.97879 V 367.621 q 0,-3.42802 -0.4285,-4.51575 -0.32962,-0.82404 -1.38439,-1.41735 -1.41735,-0.79108 -2.99951,-0.79108 h -1.58216 v -1.21958 h 19.11776 v 1.21958 h -1.58216 q -1.58216,0 -2.99951,0.75812 -1.05477,0.52738 -1.45031,1.61512 -0.36258,1.05477 -0.36258,4.35094 v 28.84146 q 0,3.39505 0.4285,4.48279 0.32962,0.82404 1.35143,1.41735 1.45031,0.79108 3.03247,0.79108 h 1.58216 v 1.21958 h -19.11776 v -1.21958 h 1.58216 q 2.73581,0 3.98836,-1.61512 0.82404,-1.05478 0.82404,-5.0761 V 382.84929 H 90.212937 v 13.61317 q 0,3.39505 0.428502,4.48279 0.329616,0.82404 1.38439,1.41735 1.417352,0.79108 2.999512,0.79108 h 1.615122 v 1.21958 H 77.489732 v -1.21958 h 1.582161 q 2.76878,0 4.021323,-1.61512 0.79108,-1.05478 0.79108,-5.0761 V 367.621 q 0,-3.42802 -0.428501,-4.51575 -0.329617,-0.82404 -1.351429,-1.41735 -1.450313,-0.79108 -3.032473,-0.79108 h -1.582161 v -1.21958 h 19.150731 v 1.21958 h -1.615122 q -1.58216,0 -2.999512,0.75812 -1.021812,0.52738 -1.417352,1.61512 -0.39554,1.05477 -0.39554,4.35094 z"
           style="font-style:normal;font-variant:normal;font-weight:normal;font-stretch:normal;font-size:67.5055px;font-family:'Times New Roman';-inkscape-font-specification:'Times New Roman, Normal';font-variant-ligatures:normal;font-variant-caps:normal;font-variant-numeric:normal;font-variant-east-asian:normal;fill:#ffffff;fill-opacity:0.99193549;stroke-width:1.68764"
           id="path371" />
        <path
           d="m 149.80764,358.65542 q 8.70188,0 15.06348,6.6253 6.39456,6.59233 6.39456,16.48083 0,10.18516 -6.42752,16.90934 -6.42753,6.72418 -15.55791,6.72418 -9.22927,0 -15.52495,-6.55937 -6.26271,-6.55937 -6.26271,-16.97526 0,-10.64662 7.25156,-17.3708 6.29568,-5.83422 15.06349,-5.83422 z m -0.62628,2.40621 q -5.99902,0 -9.6248,4.44982 -4.51575,5.53756 -4.51575,16.21714 0,10.94328 4.68056,16.84342 3.59282,4.48278 9.49296,4.48278 6.29568,0 10.38292,-4.91129 4.12021,-4.91128 4.12021,-15.49198 0,-11.47066 -4.51575,-17.10711 -3.62578,-4.48278 -10.02035,-4.48278 z"
           style="font-style:normal;font-variant:normal;font-weight:normal;font-stretch:normal;font-size:67.5055px;font-family:'Times New Roman';-inkscape-font-specification:'Times New Roman, Normal';font-variant-ligatures:normal;font-variant-caps:normal;font-variant-numeric:normal;font-variant-east-asian:normal;fill:#ffffff;fill-opacity:0.99193549;stroke-width:1.68764"
           id="path373" />
        <path
           d="m 198.5909,358.65542 q 8.70188,0 15.06348,6.6253 6.39457,6.59233 6.39457,16.48083 0,10.18516 -6.42753,16.90934 -6.42752,6.72418 -15.55791,6.72418 -9.22926,0 -15.52494,-6.55937 -6.26272,-6.55937 -6.26272,-16.97526 0,-10.64662 7.25157,-17.3708 6.29568,-5.83422 15.06348,-5.83422 z m -0.62627,2.40621 q -5.99902,0 -9.62481,4.44982 -4.51575,5.53756 -4.51575,16.21714 0,10.94328 4.68056,16.84342 3.59282,4.48278 9.49296,4.48278 6.29568,0 10.38293,-4.91129 4.12021,-4.91128 4.12021,-15.49198 0,-11.47066 -4.51575,-17.10711 -3.62579,-4.48278 -10.02035,-4.48278 z"
           style="font-style:normal;font-variant:normal;font-weight:normal;font-stretch:normal;font-size:67.5055px;font-family:'Times New Roman';-inkscape-font-specification:'Times New Roman, Normal';font-variant-ligatures:normal;font-variant-caps:normal;font-variant-numeric:normal;font-variant-east-asian:normal;fill:#ffffff;fill-opacity:0.99193549;stroke-width:1.68764"
           id="path375" />
        <path
           d="m 261.38289,392.01263 1.08774,0.23074 -3.82356,12.12989 h -34.60975 v -1.21958 h 1.68104 q 2.83471,0 4.05429,-1.84585 0.69219,-1.05478 0.69219,-4.87833 v -28.84146 q 0,-4.18614 -0.92292,-5.24091 -1.28551,-1.45031 -3.82356,-1.45031 h -1.68104 v -1.21958 h 20.23846 v 1.21958 q -3.55986,-0.033 -5.01017,0.65923 -1.41735,0.6922 -1.94474,1.74697 -0.52739,1.05477 -0.52739,5.04313 v 28.08335 q 0,2.73582 0.52739,3.75763 0.39554,0.69219 1.21958,1.02181 0.82404,0.32962 5.14202,0.32962 h 3.26321 q 5.14202,0 7.2186,-0.75812 2.07659,-0.75812 3.7906,-2.6699 1.714,-1.94474 3.42801,-6.09791 z"
           style="font-style:normal;font-variant:normal;font-weight:normal;font-stretch:normal;font-size:67.5055px;font-family:'Times New Roman';-inkscape-font-specification:'Times New Roman, Normal';font-variant-ligatures:normal;font-variant-caps:normal;font-variant-numeric:normal;font-variant-east-asian:normal;fill:#ffffff;fill-opacity:0.99193549;stroke-width:1.68764"
           id="path377" />
      </g>
    </g>
  </g>
</svg>
