<?xml version="1.0" encoding="UTF-8" standalone="no"?>
<svg
   xmlns:dc="http://purl.org/dc/elements/1.1/"
   xmlns:cc="http://creativecommons.org/ns#"
   xmlns:rdf="http://www.w3.org/1999/02/22-rdf-syntax-ns#"
   xmlns:svg="http://www.w3.org/2000/svg"
   xmlns="http://www.w3.org/2000/svg"
   xmlns:sodipodi="http://sodipodi.sourceforge.net/DTD/sodipodi-0.dtd"
   xmlns:inkscape="http://www.inkscape.org/namespaces/inkscape"
   sodipodi:docname="School_Logo_Green.svg"
   inkscape:version="1.0 (4035a4fb49, 2020-05-01)"
   id="svg8"
   version="1.1"
   viewBox="0 0 266.66957 300.04678"
   height="1134.035"
   width="1007.885">
  <defs
     id="defs2" />
  <sodipodi:namedview
     inkscape:window-maximized="0"
     inkscape:window-y="49"
     inkscape:window-x="300"
     inkscape:window-height="729"
     inkscape:window-width="1274"
     units="px"
     showgrid="false"
     inkscape:document-rotation="0"
     inkscape:current-layer="layer1"
     inkscape:document-units="px"
     inkscape:cy="284.02865"
     inkscape:cx="1015.3505"
     inkscape:zoom="0.17507465"
     inkscape:pageshadow="2"
     inkscape:pageopacity="0"
     borderopacity="1.0"
     bordercolor="#666666"
     pagecolor="#545454"
     id="base" />
  <metadata
     id="metadata5">
    <rdf:RDF>
      <cc:Work
         rdf:about="">
        <dc:format>image/svg+xml</dc:format>
        <dc:type
           rdf:resource="http://purl.org/dc/dcmitype/StillImage" />
        <dc:title />
      </cc:Work>
    </rdf:RDF>
  </metadata>
  <g
     id="layer1"
     inkscape:groupmode="layer"
     inkscape:label="Layer 1">
    <path
       id="path2277"
       style="opacity:0.5;fill:none;stroke:#800080;stroke-width:0.852731;stroke-linecap:round;stroke-miterlimit:4;stroke-dasharray:none;paint-order:markers fill stroke;stop-color:#000000"
       d="m 179.06091,158.72517 a 12.897304,12.897304 0 0 1 -0.0644,1.35846" />
    <path
       id="path2342"
       style="fill:#007f5f;fill-opacity:1;stroke:none;stroke-width:0.852773;stroke-linecap:butt;stroke-linejoin:miter;stroke-miterlimit:4;stroke-dasharray:none;stroke-opacity:1"
       d="M 136.42836,0 C 60.653053,0 2.9798018,22.662182 2.9798018,22.662182 L 1.5875,162.42781 c 0,52.77896 44.548401,103.7499 131.90483,137.619 90.37661,-26.17467 132.02741,-95.98685 132.18855,-137.619 L 266.17083,22.623942 C 266.17083,22.623942 212.20366,0 136.42836,0 Z m -0.28993,10.652063 v 0.0036 c 68.45208,0 117.51306,20.547582 117.51306,20.547582 l 3.91953,1.642277 v 4.268991 l -0.42844,123.912327 c -0.16117,41.14 -39.27533,104.18811 -121.82589,128.08416 l -2.08225,0.59947 -2.01145,-0.78084 C 52.427505,258.3966 10.177495,211.37593 10.177495,160.99999 v -0.0351 l 1.282737,-128.21181 4.006356,-1.574064 c 0,0 52.206862,-20.526913 120.671842,-20.526913 z m 0,12.78785 v 0.0067 c -58.440689,0 -102.295975,14.748145 -111.975382,18.249532 L 22.964035,160.99999 c 0,42.74921 36.16775,85.59912 110.779465,115.07565 76.23301,-22.98202 110.49611,-82.74828 110.60892,-115.10097 L 244.76536,41.544234 C 235.36959,37.947449 194.25034,23.439913 136.13843,23.439913 Z m 34.92692,26.535848 4.56762,9.888802 8.84117,-0.286805 -6.55891,7.416601 2.09156,9.033042 -8.84427,-4.564063 -15.78459,11.507825 9.50889,-16.259474 -7.13309,-7.035744 9.41483,-0.09664 z m -34.56464,2.600873 11.20716,1.620057 c 1.98873,0.287486 3.52972,0.891154 4.6224,1.799373 1.08623,0.919501 1.53763,2.046277 1.34423,3.391524 -0.19017,1.31141 -0.91863,2.291247 -2.19181,2.949692 -1.27318,0.657474 -2.83676,0.860353 -4.70303,0.589626 l -1.41504,-0.203086 v 0.19327 l 0.19381,0.03255 c 1.31186,0.18983 2.34952,0.674449 2.93293,1.25522 0.58662,0.581094 1.02191,1.255281 1.34423,1.890842 0.45126,0.942705 0.93124,1.783683 1.99492,1.938383 1.17325,0.170169 1.84051,-0.27599 2.4497,-1.296046 l -0.42224,4.025077 c -0.64787,0.644909 -1.82451,0.970124 -2.99133,0.802537 l -0.016,-0.0093 c -1.97584,-0.286197 -2.94293,-1.187709 -3.45543,-2.27738 -0.36745,-0.734181 -0.59282,-1.540663 -0.85068,-2.328023 -0.26752,-0.788652 -0.68658,-1.564566 -1.29255,-2.171444 -0.61564,-0.608488 -1.67619,-1.109022 -3.08798,-1.312066 -1.57294,-0.235273 -2.59762,-0.306027 -3.07144,-0.235127 l -0.34833,2.407605 c -0.22564,1.571498 -0.28984,2.834934 -0.12869,3.7915 l -4.44513,-0.642339 c 0.42546,-0.954307 0.75425,-2.234647 0.97989,-3.828706 l 1.22175,-8.43411 c 0.22563,-1.61662 0.25762,-2.936343 0.12868,-3.949631 z m -10.24329,0.372589 1.20212,3.381706 c -0.62531,-0.178552 -1.69541,-0.125638 -3.21356,0.148309 l -9.20553,1.658297 0.62535,3.474207 7.41993,-1.336868 c 1.06688,-0.19241 1.85998,-0.380357 2.39182,-0.570508 l 0.58969,3.271634 c -0.61241,0.0064 -1.4309,0.109937 -2.44299,0.290422 l -7.41993,1.336353 0.63465,3.530017 9.37659,-1.688787 c 1.6213,-0.291674 2.75242,-0.704972 3.40995,-1.241267 v 3.784264 l -16.23835,2.924887 c 0.12571,-0.985893 0.0322,-2.305415 -0.25789,-3.94653 l -1.50859,-8.386567 c -0.28364,-1.562798 -0.66099,-2.817976 -1.13802,-3.788399 z m 13.85687,3.350183 -0.60312,4.17132 6.64677,0.961181 c 2.15957,0.312301 3.60312,-0.26326 3.79652,-1.585949 0.0935,-0.644583 -0.1385,-1.197351 -0.68323,-1.657263 -0.55762,-0.4612 -1.34418,-0.760341 -2.35306,-0.90537 z m -38.06968,2.552814 c 0.14504,0.982993 0.57972,2.231612 1.30495,3.734141 l 2.44661,5.084443 c 2.06289,4.281656 0.63804,7.616967 -4.02599,9.861414 -1.52461,0.733537 -3.113616,1.142641 -4.780033,1.236099 l -0.912181,-3.022555 c 1.260289,0.269116 2.643192,0.03419 4.135564,-0.684194 2.70752,-1.303353 3.34884,-3.602889 2.01765,-6.371706 l -2.1758,-4.51807 c -0.709111,-1.471909 -1.402023,-2.596163 -2.085351,-3.357417 z m 86.71807,13.705107 3.25852,3.645257 -3.12312,8.966377 c -0.50605,1.508974 -1.05423,2.901992 -1.62796,4.196644 l 0.16124,0.186549 c 1.16038,-0.379661 2.61399,-0.759063 4.34487,-1.155483 l 9.28305,-2.075325 3.18151,3.559987 c -0.86382,0.388364 -1.92438,1.153925 -3.21046,2.303219 l -6.35631,5.678723 c -1.21839,1.088705 -2.1046,2.066065 -2.6461,2.933675 l -3.00115,-3.35587 c 0.96698,-0.479894 2.06288,-1.276009 3.28126,-2.364714 l 5.8085,-5.190897 -0.16125,-0.187069 -13.23772,2.913518 -0.90598,-1.013376 4.38363,-12.81989 -0.12868,-0.144693 -5.8085,5.190898 c -1.21839,1.088705 -2.13349,2.089007 -2.7169,2.994649 l -2.99133,-3.347082 c 0.92184,-0.441865 1.99207,-1.214837 3.21046,-2.303219 l 6.3558,-5.678207 c 1.28608,-1.149295 2.16636,-2.119559 2.64662,-2.933671 z m -110.973273,0.772562 3.100895,1.941483 c -0.734901,0.392232 -1.557046,1.061884 -2.472447,2.032953 l -2.788222,2.94659 6.733592,6.364986 c 1.234505,1.169279 2.275582,1.964291 3.145857,2.392619 l -3.084873,3.262331 C 81.88915,91.372623 81.028774,90.37023 79.858737,89.263801 l -6.733595,-6.365502 -2.794421,2.954859 c -0.947636,1.004258 -1.575941,1.870019 -1.898265,2.590022 l -2.111194,-2.986897 z m 55.658993,7.645014 c 3.99118,0 7.96046,0.423034 12.06507,1.504299 9.11661,1.630423 15.9205,9.315421 15.9205,18.590598 0,10.25069 -8.77296,19.59982 -26.55761,21.54235 -7.16408,0.7825 -17.56515,3.60635 -26.69767,9.02477 -1.49041,1.22744 -2.15926,3.516 -2.15926,5.59553 0,3.41008 2.76553,6.17533 6.17595,6.17533 2.04591,0 3.95836,-1.013 5.08237,-2.67839 2.31711,-3.21479 6.12809,-5.32285 10.43141,-5.3237 7.12358,0 12.89869,5.77505 12.89869,12.89792 0.75924,12.18512 -10.69476,31.69425 -29.93707,34.01497 15.23303,-0.80214 29.97364,-9.3074 44.98261,-30.91232 1.75084,-3.17557 5.9706,-5.58002 10.52806,-5.58002 7.12443,0 12.89972,5.77367 12.89972,12.8974 0.45199,8.29965 -2.55665,16.0876 -9.84483,22.88388 -9.87136,8.06514 -22.62368,12.64987 -35.78691,12.64987 -13.21099,0 -26.00658,-4.61689 -36.195192,-13.05553 0.01035,0.002 0.02066,0.004 0.03101,0.006 -0.0033,-9.1e-4 -0.0065,-0.002 -0.0098,-0.003 -2.397268,-1.98942 -4.627269,-4.17372 -6.661239,-6.54688 -0.01697,-0.0489 -0.03182,-0.0969 -0.04858,-0.14573 0.01616,0.0517 0.03118,0.10275 0.04755,0.15451 -8.909384,-10.28481 -13.811387,-23.44068 -13.811387,-37.052 0,-31.28248 25.361018,-56.64047 56.646628,-56.640467 z m 24.70638,5.668904 c 19.52696,9.458507 31.93973,29.259813 31.93973,50.972083 0,11.45817 -3.47514,22.64617 -9.96679,32.08848 6.56242,-19.29393 0.60362,-39.59126 -23.23604,-37.70416 18.05159,-21.46925 8.54616,-37.340719 1.2631,-45.356403 z m -27.17004,3.12022 a 12.0093,12.008103 0 0 0 -11.98289,12.008573 12.0093,12.008103 0 0 0 12.00925,12.00805 12.0093,12.008103 0 0 0 12.01131,-12.00805 12.0093,12.008103 0 0 0 -12.01131,-12.008573 12.0093,12.008103 0 0 0 -0.0253,0 z m -68.970103,3.721738 3.107613,1.551845 c -0.850937,0.557241 -1.711586,1.35464 -2.572192,2.3921 -0.863831,1.037461 -1.595665,2.166734 -2.201634,3.38274 -1.485919,2.9738 -1.695222,4.72107 -0.631549,5.25188 3.178121,1.58728 6.620328,-12.258543 12.599451,-9.272824 1.402114,0.699376 2.152999,1.950744 2.249701,3.754294 0.109588,1.80322 -0.441327,3.9028 -1.640374,6.30452 h 0.0062 c -0.644648,1.28755 -1.492378,2.65196 -2.559271,4.07262 -1.057227,1.42583 -2.088373,2.59587 -3.084356,3.49023 l -3.249222,-1.80144 c 2.456115,-1.46708 4.564189,-3.97668 6.111349,-7.07295 1.492358,-2.9841 1.65368,-4.76696 0.49976,-5.34386 -3.055639,-1.526057 -6.601618,12.24263 -12.651651,9.22114 -0.908955,-0.45444 -1.511339,-1.19457 -1.833663,-2.23139 -0.322326,-1.03713 -0.354503,-2.20198 -0.09665,-3.50469 0.254637,-1.3027 0.741222,-2.68178 1.460005,-4.12275 0.593078,-1.185391 1.292367,-2.330574 2.114295,-3.439583 0.815479,-1.098696 1.611497,-1.977628 2.372184,-2.631882 z m 147.257363,5.766573 5.84053,14.924672 -3.08797,1.83296 c 0.0548,-0.64652 -0.20611,-1.68615 -0.76696,-3.12229 l -3.40685,-8.71265 -3.28798,1.28623 2.74636,7.02076 c 0.39646,1.01071 0.73165,1.74964 1.02174,2.23759 l -3.09417,1.2113 c -0.12571,-0.6014 -0.38376,-1.38393 -0.75765,-2.34146 l -2.74636,-7.02076 -3.34225,1.30638 3.47145,8.87181 c 0.59953,1.53186 1.22482,2.56378 1.87914,3.10524 l -3.71642,0.72915 -6.00798,-15.36134 c 0.98954,-0.0687 2.26888,-0.40914 3.81927,-1.01699 l 7.9388,-3.1042 c 1.47947,-0.57852 2.63669,-1.19118 3.4973,-1.846402 z M 50.890694,149.04361 c 1.569048,0 3.138329,0.48003 4.259078,1.21647 l -0.97678,2.09754 c -1.184793,-0.7044 -2.593458,-1.1529 -3.490059,-1.1529 -0.848564,0 -1.42486,0.30425 -1.42486,0.91261 0,2.06518 5.971897,0.91268 5.955785,4.94698 0,2.19327 -1.905073,3.37757 -4.386734,3.37757 -1.841231,0 -3.682631,-0.70401 -4.947476,-1.77663 l 1.008824,-2.06551 c 1.152773,1.0246 2.78539,1.68104 3.970178,1.68104 1.040696,0 1.665181,-0.38443 1.665181,-1.07281 0,-2.11321 -5.971807,-0.88009 -5.971807,-4.85035 0,-2.03315 1.744934,-3.31401 4.33867,-3.31401 z m -14.793335,0.11214 h 8.533662 v 2.09703 h -6.003848 v 2.43344 h 5.411577 v 2.09703 h -5.411577 v 2.48151 h 6.180081 v 2.09703 h -8.709895 z m 19.784226,0 h 9.366251 v 2.14509 h -3.42597 v 9.06095 h -2.529814 v -9.06095 h -3.410467 z m 156.265975,0.27079 c 2.7484,0 4.43635,1.95655 4.43635,5.16764 0,3.33057 -1.85227,5.49631 -4.73507,5.49631 -1.12027,0 -2.41957,-0.32885 -3.28591,-0.83665 l 0.89615,-1.73219 c 0.62735,0.43329 1.43382,0.67179 2.2404,0.67179 1.79242,0 2.64387,-1.17989 2.59907,-3.03185 -0.50785,0.76171 -1.40418,1.22473 -2.61406,1.22473 -2.07622,0 -3.36085,-1.34381 -3.36085,-3.37499 0,-2.21044 1.50873,-3.58479 3.82392,-3.58479 z m 9.3647,0 c 2.74838,0 4.43635,1.95655 4.43635,5.16764 0,3.33057 -1.85223,5.49631 -4.73507,5.49631 -1.12024,0 -2.41957,-0.32885 -3.28591,-0.83665 l 0.89616,-1.73219 c 0.62734,0.43329 1.43381,0.67179 2.24039,0.67179 1.79245,0 2.64387,-1.17989 2.59907,-3.03185 -0.50785,0.76171 -1.40417,1.22473 -2.61405,1.22473 -2.07623,0 -3.36086,-1.34381 -3.36086,-3.37499 0,-2.21044 1.5087,-3.58479 3.82392,-3.58479 z m -19.61574,0.10438 h 4.33195 v 10.45518 h -2.3603 v -8.46874 h -1.97165 z m 28.44296,0 h 2.27037 l -3.19651,6.1836 h 2.50914 v -2.30011 h 2.19595 v 2.30011 h 1.44864 v 1.91151 h -1.44864 v 2.36007 h -2.19595 v -2.36007 h -4.97383 v -1.67276 z m -18.08701,1.86707 c -1.0605,0 -1.73288,0.58233 -1.73288,1.62781 0,0.97081 0.61239,1.55339 1.67293,1.55339 1.16508,0 1.8384,-0.70172 1.82229,-1.59783 0.0149,-0.8065 -0.55246,-1.58337 -1.76234,-1.58337 z m 9.36471,0 c -1.06055,0 -1.73289,0.58233 -1.73289,1.62781 0,0.97081 0.61243,1.55339 1.67294,1.55339 1.16507,0 1.83839,-0.70172 1.82229,-1.59783 0.0149,-0.8065 -0.55248,-1.58337 -1.76234,-1.58337 z m -155.237,6.56239 c 0.720482,0 1.233121,0.51262 1.233121,1.26504 0,0.73644 -0.512639,1.28054 -1.233121,1.28054 -0.70447,0 -1.232607,-0.5441 -1.232607,-1.28054 0,-0.75242 0.528137,-1.26504 1.232607,-1.26504 z m 12.410814,33.5101 c 0.959843,0.0136 1.963677,0.25971 3.021306,0.74363 1.205493,0.55273 2.43334,1.34669 3.667842,2.38383 1.0121,0.8531 1.962935,1.80156 2.846105,2.86029 0.876723,1.05164 1.547027,2.03213 2.004728,2.92489 l -2.236778,2.65668 c -0.341664,-0.95978 -0.915581,-1.98041 -1.724615,-3.06235 -0.805813,-1.08193 -1.730576,-2.05626 -2.771683,-2.9316 -2.543143,-2.14003 -4.193389,-2.75216 -4.957298,-1.8433 -2.288506,2.7179 10.365801,9.30726 6.062766,14.4198 -1.008875,1.19795 -2.39819,1.62699 -4.177422,1.30793 -1.779231,-0.31714 -3.690684,-1.34475 -5.743891,-3.0732 -1.102351,-0.92691 -2.230527,-2.07056 -3.361887,-3.44062 -1.137806,-1.36137 -2.033735,-2.63845 -2.671936,-3.81579 l 2.514308,-2.7373 c 0.850937,2.73175 2.797853,5.36985 5.444138,7.59851 2.552811,2.14808 4.248184,2.72331 5.079781,1.73581 2.201478,-2.61315 -10.356387,-9.28376 -6.001782,-14.45752 0.654319,-0.77802 1.518246,-1.20022 2.598033,-1.26142 0.135377,-0.008 0.271164,-0.0102 0.408285,-0.008 z m 100.559956,5.2772 c 0.21596,0.43187 0.54789,0.98735 1.00882,1.65933 0.46092,0.67198 0.94077,1.31307 1.44037,1.90738 l 5.79247,6.87658 5.46326,-4.59817 c 0.75101,-0.63298 1.41487,-1.28143 2.00472,-1.94407 0.58341,-0.65522 0.99956,-1.21897 1.25742,-1.70015 l 2.15925,2.90111 c -0.029,0.0383 -0.16114,0.19011 -0.35453,0.46406 -0.20307,0.27459 -0.38666,0.50851 -0.54782,0.69866 -0.16439,0.19692 -0.36421,0.43743 -0.65429,0.73071 -0.2772,0.29232 -0.53805,0.5459 -0.7959,0.75861 -0.67044,0.56659 -1.66366,1.25173 -2.95619,2.0407 -1.29897,0.79638 -2.32699,1.51105 -3.06833,2.1363 -1.34733,1.13318 -2.48191,2.38973 -3.40375,3.76205 -0.39969,-0.93432 -1.20521,-2.12219 -2.41715,-3.56413 l -5.48962,-6.51846 c -1.02499,-1.21472 -1.97587,-2.11505 -2.87194,-2.7187 z m -9.59676,7.38869 c 0.76777,0.003 1.50614,0.0923 2.20216,0.26872 2.23048,0.56466 4.12596,2.13443 5.20898,4.5036 0.69299,1.57956 0.95092,3.1423 0.69305,4.68189 -0.26107,1.54991 -0.94114,2.94174 -2.04349,4.18579 h 0.01 c -1.11524,1.24856 -2.55284,2.28111 -4.32885,3.09232 -1.776,0.81121 -3.50043,1.20596 -5.1604,1.23816 -1.67286,0.0222 -3.17197,-0.3731 -4.51284,-1.19269 -1.33765,-0.80896 -2.36235,-2.01092 -3.08436,-3.59048 -1.08945,-2.36917 -1.03466,-4.83139 0,-6.88537 1.03467,-2.05396 3.02294,-3.8542 5.67567,-5.06377 1.82155,-0.83068 3.65117,-1.24418 5.34026,-1.23817 z m -72.010527,0.43202 c 1.898101,-0.0325 3.953747,0.44418 5.983177,1.38338 1.19261,0.55176 2.26947,1.18891 3.24612,1.93115 0.9702,0.7374 1.7468,1.47566 2.33342,2.22467 l -1.75355,3.05252 c -0.40291,-0.76447 -1.02195,-1.51771 -1.8471,-2.26446 -0.84127,-0.74128 -1.81106,-1.36572 -2.91019,-1.8743 -3.758309,-1.80323 -7.700308,-1.28597 -9.041178,1.71876 -0.451254,1.00555 -0.547982,2.02047 -0.257891,3.0489 0.280423,1.02393 0.860688,1.97236 1.740637,2.81999 0.879944,0.8473 1.99493,1.59069 3.342248,2.21433 1.182927,0.54693 2.388254,0.90253 3.625974,1.08624 1.22807,0.17726 2.33721,0.15156 3.32675,-0.0837 l -1.58611,3.42098 c -2.23048,0.0113 -4.67335,-0.59009 -7.306743,-1.80868 l -0.0067,-5.2e-4 c -3.242586,-1.50188 -5.618143,-3.82224 -6.575448,-6.49211 -0.638201,-1.76938 -0.541254,-3.80113 0.361256,-5.75003 1.43636,-3.10368 4.161845,-4.57296 7.325346,-4.62711 z m 70.952607,2.68666 c -0.99989,0.0188 -2.05028,0.27004 -3.07971,0.75912 -3.32638,1.46127 -4.98016,4.68445 -3.52003,7.77266 0.70589,1.54829 1.82128,2.53349 3.34587,2.95537 h 0.0129 c 1.51814,0.43735 3.13281,0.26486 4.83791,-0.51315 1.7051,-0.77769 2.89444,-1.88575 3.5681,-3.32383 0.65749,-1.42292 0.64502,-2.91086 -0.0641,-4.45915 -0.94622,-2.14929 -2.9012,-3.23244 -5.10097,-3.19102 z m -55.93446,2.83393 4.4348,0.6935 c -0.44158,0.97139 -0.77647,2.20307 -1.0021,3.68143 l -0.44188,2.82153 10.10168,1.57872 0.44188,-2.82154 c 0.22567,-1.52348 0.29016,-2.79759 0.16124,-3.81217 l 4.44772,0.69505 c -0.43513,0.92659 -0.76698,2.20329 -1.02485,3.81734 l -1.31529,8.41912 c -0.25781,1.70428 -0.32221,3.01195 -0.19329,3.94757 l -4.44772,-0.69505 c 0.4577,-1.07323 0.77959,-2.29331 1.00521,-3.68143 l 0.44808,-2.86701 -10.10168,-1.57871 -0.44808,2.86701 c -0.25788,1.61405 -0.28966,2.87656 -0.16073,3.81216 l -4.42911,-0.69298 c 0.44159,-0.89114 0.78972,-2.16583 1.04758,-3.81372 l 1.3153,-8.41964 c 0.22557,-1.5686 0.29017,-2.87827 0.16124,-3.95118 z m 32.84365,1.18856 c 2.05421,0.019 3.91092,0.4992 5.39039,1.38751 1.9694,1.18475 3.33304,3.2361 3.68438,5.8167 0.23529,1.72072 0.009,3.28443 -0.68995,4.68189 -0.69622,1.40906 -1.7505,2.54408 -3.1655,3.41684 v 5.2e-4 c -1.4279,0.87406 -3.10075,1.44621 -5.03792,1.71049 -1.93394,0.26234 -3.70018,0.15721 -5.29891,-0.30593 -1.6084,-0.46183 -2.92676,-1.27347 -3.97432,-2.44532 -1.04756,-1.16059 -1.68866,-2.60751 -1.91428,-4.32791 -0.35134,-2.58059 0.41217,-4.92172 1.99801,-6.58926 1.58262,-1.66786 4.01003,-2.81604 6.89484,-3.20859 0.72201,-0.0981 1.42852,-0.14327 2.11326,-0.13694 z m -0.3995,2.91714 c -0.43074,-0.005 -0.87363,0.0261 -1.32408,0.0946 -3.61648,0.43445 -6.12074,3.04615 -5.61469,6.42442 0.22884,1.68656 1.01232,2.95154 2.34996,3.79563 1.32475,0.85798 2.92344,1.1578 4.78003,0.9064 1.85659,-0.25234 3.31647,-0.96943 4.37691,-2.15129 1.04434,-1.16895 1.4634,-2.59742 1.23778,-4.28397 -0.36383,-2.96671 -2.79074,-4.75245 -5.80591,-4.78575 z" />
    <path
       d="m 179.06091,158.72517 a 12.897304,12.897304 0 0 1 -0.0644,1.35846"
       style="opacity:0.5;fill:none;stroke:#800080;stroke-width:0.852731;stroke-linecap:round;stroke-miterlimit:4;stroke-dasharray:none;paint-order:markers fill stroke;stop-color:#000000"
       id="path2344" />
  </g>
</svg>
